<svg width="193" height="133" viewBox="0 0 193 133" fill="none" xmlns="http://www.w3.org/2000/svg">
<rect x="0.810146" y="0.810146" width="191.38" height="131.38" rx="5.67102" fill="#006FCF" stroke="#F3F3F3" stroke-width="1.62029"/>
<path fill-rule="evenodd" clip-rule="evenodd" d="M39.4759 96.0717V68.6919H70.5012L73.8299 72.7466L77.2686 68.6919H189.883V94.1835C189.883 94.1835 186.938 96.0443 183.532 96.0717H121.175L117.422 91.7557V96.0717H105.124V88.7041C105.124 88.7041 103.444 89.7326 99.8119 89.7326H95.6259V96.0717H77.0055L73.6816 91.9301L70.3066 96.0717H39.4759ZM3.32764 48.0559L10.3081 32.815H22.3801L26.3416 41.3523V32.815H41.3481L43.7064 38.9855L45.9927 32.815H113.357V35.9171C113.357 35.9171 116.898 32.815 122.718 32.815L144.575 32.8865L148.468 41.3122V32.815H161.026L164.483 37.6548V32.815H177.156V60.1948H164.483L161.17 55.3392V60.1948H142.719L140.864 55.8787H135.904L134.078 60.1948H121.566C116.558 60.1948 113.357 57.156 113.357 57.156V60.1948H94.4904L90.746 55.8787V60.1948H20.5917L18.7375 55.8787H13.7931L11.9519 60.1948H3.32764V48.0559ZM3.36361 56.6914L12.7787 36.1903H19.9166L29.3227 56.6914H23.0579L21.3297 52.5862H11.2305L9.49333 56.6914H3.36361ZM19.3405 48.1352L16.2621 40.9615L13.1748 48.1352H19.3405ZM29.9708 56.688V36.1868L38.6814 36.2171L43.7479 49.435L48.693 36.1868H57.334V56.688H51.8613V41.5819L46.0602 56.688H41.2607L35.4434 41.5819V56.688H29.9708ZM61.0784 56.688V36.1868H78.9365V40.7726H66.6087V44.2794H78.6485V48.5954H66.6087V52.2371H78.9365V56.688H61.0784ZM82.1049 56.6914V36.1903H94.2834C98.3186 36.1903 101.934 38.5272 101.934 42.8414C101.934 46.5294 98.8858 48.9048 95.9305 49.1384L103.131 56.6914H96.4436L89.8818 49.4081H87.5776V56.6914H82.1049ZM93.8333 40.7761H87.5776V45.0921H93.9144C95.0112 45.0921 96.4256 44.2961 96.4256 42.9341C96.4256 41.8754 95.334 40.7761 93.8333 40.7761ZM109.756 56.688H104.168V36.1868H109.756V56.688ZM123.006 56.688H121.8C115.964 56.688 112.42 52.3821 112.42 46.5217C112.42 40.5166 115.924 36.1868 123.294 36.1868H129.342V41.0424H123.073C120.081 41.0424 117.965 43.2289 117.965 46.5723C117.965 50.5426 120.384 52.2101 123.87 52.2101H125.31L123.006 56.688ZM125.499 56.6914L134.914 36.1903H142.052L151.458 56.6914H145.193L143.465 52.5862H133.366L131.629 56.6914H125.499ZM141.476 48.1352L138.398 40.9615L135.31 48.1352H141.476ZM152.097 56.688V36.1868H159.055L167.939 49.0675V36.1868H173.412V56.688H166.679L157.57 43.4701V56.688H152.097ZM43.2204 92.565V72.0638H61.0785V76.6496H48.7506V80.1564H60.7905V84.4724H48.7506V88.1141H61.0785V92.565H43.2204ZM130.725 92.565V72.0638H148.583V76.6496H136.255V80.1564H148.238V84.4724H136.255V88.1141H148.583V92.565H130.725ZM61.7715 92.565L70.4665 82.4408L61.5645 72.0638H68.4593L73.7609 78.4789L79.0805 72.0638H85.7053L76.9203 82.3144L85.6313 92.565H78.7376L73.5899 86.2511L68.5673 92.565H61.7715ZM86.2814 92.5684V72.0673H98.3699C103.33 72.0673 106.228 75.0613 106.228 78.9628C106.228 83.6726 102.533 86.0944 97.6588 86.0944H91.8981V92.5684H86.2814ZM97.9647 76.7037H91.898V81.4243H97.9467C99.5451 81.4243 100.665 80.4322 100.665 79.064C100.665 77.6076 99.5394 76.7037 97.9647 76.7037ZM108.604 92.565V72.0638H120.783C124.818 72.0638 128.433 74.4007 128.433 78.7149C128.433 82.4029 125.385 84.7783 122.43 85.0119L129.631 92.565H122.943L116.381 85.2817H114.077V92.565H108.604ZM120.333 76.6496H114.077V80.9656H120.414C121.51 80.9656 122.925 80.1696 122.925 78.8076C122.925 77.749 121.833 76.6496 120.333 76.6496ZM151.118 92.565V88.1141H162.07C163.691 88.1141 164.393 87.2939 164.393 86.3944C164.393 85.5326 163.693 84.6613 162.07 84.6613H157.121C152.819 84.6613 150.423 82.2065 150.423 78.521C150.423 75.2338 152.617 72.0638 159.01 72.0638H169.667L167.363 76.6766H158.146C156.384 76.6766 155.842 77.5424 155.842 78.3693C155.842 79.2192 156.512 80.1564 157.858 80.1564H163.043C167.838 80.1564 169.919 82.7041 169.919 86.0404C169.919 89.6272 167.6 92.565 162.782 92.565H151.118ZM170.402 92.565V88.1141H181.354C182.975 88.1141 183.677 87.2939 183.677 86.3944C183.677 85.5326 182.977 84.6613 181.354 84.6613H176.405C172.103 84.6613 169.707 82.2065 169.707 78.521C169.707 75.2338 171.901 72.0638 178.294 72.0638H188.951L186.647 76.6766H177.43C175.668 76.6766 175.126 77.5424 175.126 78.3693C175.126 79.2192 175.796 80.1564 177.142 80.1564H182.326C187.122 80.1564 189.203 82.7041 189.203 86.0404C189.203 89.6272 186.884 92.565 182.065 92.565H170.402Z" fill="white"/>
</svg>
