<svg width="136" height="136" viewBox="0 0 136 136" fill="none" xmlns="http://www.w3.org/2000/svg">
<path d="M8 68C8 34.8629 34.8629 8 68 8C101.137 8 128 34.8629 128 68C128 101.137 101.137 128 68 128C34.8629 128 8 101.137 8 68Z" fill="white"/>
<path fill-rule="evenodd" clip-rule="evenodd" d="M105.02 68.8864C105.02 66.1209 104.772 63.4618 104.311 60.9091H67.58V75.995H88.569C87.6649 80.87 84.9172 85.0005 80.7868 87.7659V97.5514H93.3909C100.765 90.7618 105.02 80.7636 105.02 68.8864Z" fill="#4285F4"/>
<path fill-rule="evenodd" clip-rule="evenodd" d="M67.5801 107C78.1101 107 86.9383 103.508 93.391 97.5513L80.7869 87.7659C77.2946 90.1059 72.8274 91.4886 67.5801 91.4886C57.4224 91.4886 48.8246 84.6282 45.7578 75.41H32.7283V85.5145C39.1455 98.2604 52.3346 107 67.5801 107Z" fill="#34A853"/>
<path fill-rule="evenodd" clip-rule="evenodd" d="M45.7577 75.41C44.9777 73.07 44.5345 70.5705 44.5345 68C44.5345 65.4296 44.9777 62.93 45.7577 60.59V50.4855H32.7281C30.0868 55.7505 28.58 61.7068 28.58 68C28.58 74.2932 30.0868 80.2496 32.7281 85.5146L45.7577 75.41Z" fill="#FBBC05"/>
<path fill-rule="evenodd" clip-rule="evenodd" d="M67.5801 44.5114C73.306 44.5114 78.4469 46.4791 82.4887 50.3436L93.6746 39.1577C86.9205 32.8645 78.0924 29 67.5801 29C52.3346 29 39.1455 37.7395 32.7283 50.4855L45.7578 60.59C48.8246 51.3718 57.4224 44.5114 67.5801 44.5114Z" fill="#EA4335"/>
<path d="M68 120C39.2812 120 16 96.7188 16 68H0C0 105.555 30.4446 136 68 136V120ZM120 68C120 96.7188 96.7188 120 68 120V136C105.555 136 136 105.555 136 68H120ZM68 16C96.7188 16 120 39.2812 120 68H136C136 30.4446 105.555 0 68 0V16ZM68 0C30.4446 0 0 30.4446 0 68H16C16 39.2812 39.2812 16 68 16V0Z" fill="black"/>
</svg>
