<svg width="136" height="136" viewBox="0 0 136 136" fill="none" xmlns="http://www.w3.org/2000/svg">
<path d="M8 68C8 34.8629 34.8629 8 68 8C101.137 8 128 34.8629 128 68C128 101.137 101.137 128 68 128C34.8629 128 8 101.137 8 68Z" fill="url(#paint0_radial_18_887)"/>
<path fill-rule="evenodd" clip-rule="evenodd" d="M27.929 66.7943C27.929 44.4647 45.43 27.9254 68 27.9254C90.5701 27.9254 108.071 44.4747 108.071 66.8043C108.071 89.1339 90.5701 105.673 68 105.673C63.9428 105.673 60.0559 105.132 56.3995 104.131C55.6882 103.94 54.9268 103.99 54.2556 104.291L46.3015 107.797C44.2178 108.719 41.8737 107.236 41.8036 104.962L41.5832 97.8294C41.5631 96.9478 41.1624 96.1263 40.5113 95.5453C32.7174 88.5729 27.929 78.475 27.929 66.7943ZM55.7075 59.4914L43.9366 78.1645C42.8046 79.9577 45.0085 81.9713 46.6915 80.689L59.3339 71.092C60.1854 70.4408 61.3675 70.4408 62.2291 71.082L71.5956 78.1044C74.4106 80.2081 78.4177 79.4768 80.291 76.5016L92.0719 57.8385C93.1939 56.0453 90.99 54.0217 89.307 55.304L76.6646 64.901C75.8131 65.5522 74.631 65.5522 73.7695 64.911L64.4029 57.8886C61.5879 55.7848 57.5808 56.5161 55.7075 59.4914Z" fill="white"/>
<path d="M68 120C39.2812 120 16 96.7188 16 68H0C0 105.555 30.4446 136 68 136V120ZM120 68C120 96.7188 96.7188 120 68 120V136C105.555 136 136 105.555 136 68H120ZM68 16C96.7188 16 120 39.2812 120 68H136C136 30.4446 105.555 0 68 0V16ZM68 0C30.4446 0 0 30.4446 0 68H16C16 39.2812 39.2812 16 68 16V0Z" fill="black"/>
<defs>
<radialGradient id="paint0_radial_18_887" cx="0" cy="0" r="1" gradientUnits="userSpaceOnUse" gradientTransform="translate(31.1 127.356) scale(130.752 130.74)">
<stop stop-color="#0099FF"/>
<stop offset="0.6098" stop-color="#A033FF"/>
<stop offset="0.9348" stop-color="#FF5280"/>
<stop offset="1" stop-color="#FF7061"/>
</radialGradient>
</defs>
</svg>
