<svg width="136" height="136" viewBox="0 0 136 136" fill="none" xmlns="http://www.w3.org/2000/svg">
<path d="M8 68C8 34.8629 34.8629 8 68 8V8C101.137 8 128 34.8629 128 68V68C128 101.137 101.137 128 68 128V128C34.8629 128 8 101.137 8 68V68Z" fill="#1D9BF0"/>
<path d="M57.02 99.65C83.63 99.65 98.18 77.6 98.18 58.49C98.18 57.86 98.18 57.23 98.15 56.63C100.97 54.59 103.43 52.04 105.38 49.13C102.8 50.27 100.01 51.05 97.07 51.41C100.07 49.61 102.35 46.79 103.43 43.4C100.64 45.05 97.55 46.25 94.25 46.91C91.61 44.09 87.86 42.35 83.69 42.35C75.71 42.35 69.23 48.83 69.23 56.81C69.23 57.95 69.35 59.06 69.62 60.11C57.59 59.51 46.94 53.75 39.8 44.99C38.57 47.12 37.85 49.61 37.85 52.25C37.85 57.26 40.4 61.7 44.3 64.28C41.93 64.22 39.71 63.56 37.76 62.48C37.76 62.54 37.76 62.6 37.76 62.66C37.76 69.68 42.74 75.5 49.37 76.85C48.17 77.18 46.88 77.36 45.56 77.36C44.63 77.36 43.73 77.27 42.83 77.09C44.66 82.85 50 87.02 56.33 87.14C51.38 91.01 45.14 93.32 38.36 93.32C37.19 93.32 36.05 93.26 34.91 93.11C41.24 97.25 48.86 99.65 57.02 99.65Z" fill="white"/>
<path d="M68 120C39.2812 120 16 96.7188 16 68H0C0 105.555 30.4446 136 68 136V120ZM120 68C120 96.7188 96.7188 120 68 120V136C105.555 136 136 105.555 136 68H120ZM68 16C96.7188 16 120 39.2812 120 68H136C136 30.4446 105.555 0 68 0V16ZM68 0C30.4446 0 0 30.4446 0 68H16C16 39.2812 39.2812 16 68 16V0Z" fill="black"/>
</svg>
