<svg xlink="http://www.w3.org/1999/xlink" viewBox="0 0 5000 5000" xmlns="http://www.w3.org/2000/svg" style="transform: scale(1);"><defs><filter id="goo"><feGaussianBlur in="SourceGraphic" stdDeviation="0" result="blur"></feGaussianBlur><feColorMatrix in="blur" type="matrix" values="1 0 0 0 0 0 1 0 0 0 0 0 1 0 0 0 0 0 19 -9" result="good"></feColorMatrix><feComposite in="SourceGraphic" in2="goo" operator="atop"></feComposite></filter><path d="M234,220C255,232 266,240 283,258L234,280C222,273 216,261 216,250L234,220z" id="P0"></path><path d="M247,264L238,243L257,238L263,255L247,264z" id="P1"></path><path d="M225,232C242,235 249,233 260,221C261,238 265,244 281,250C278,270 261,282 239,279L225,232z" id="P2"></path><path d="M261,248L241,256L239,251L253,239L261,248z" id="P3"></path><path d="M270,282Q219,298 212,248C233,239 240,232 250,212Q284,204 286,238C270,253 267,261 270,282z" id="P4"></path><path d="M231,244L265,236L270,254L245,269L231,244z" id="P5"></path><path d="M273,222C267,241 269,248 284,261Q267,301 231,280C219,272 213,259 214,248C236,235 250,230 273,222z" id="P6"></path><path d="M239,237L267,251L263,261L233,247L239,237z" id="P7"></path><path d="M225,219C251,228 266,235 290,250C270,254 269,258 284,271L212,262C229,249 231,241 225,219z" id="P8"></path><path d="M268,247L265,261L235,260L244,233L268,247z" id="P9"></path><path d="M231,227C244,235 249,234 257,221C265,242 266,255 264,276Q231,291 220,254L231,227z" id="P10"></path><path d="M232,251L254,233L264,261L240,265L232,251z" id="P11"></path><path d="M239,278Q215,279 221,256C236,241 246,234 264,224L275,234C283,258 266,280 239,278z" id="P12"></path><path d="M257,236L252,266L235,256L245,235L257,236z" id="P13"></path></defs><rect id="RECT" width="5000" height="5000" fill="#111"></rect><g id="group" fill="#FFF" filter=""><use x="-228" y="-188" href="#P9"></use><use x="-69" y="99" href="#P7"></use><use x="-117" y="237" href="#P7"></use><use x="-135" y="473" href="#P0"></use><use x="-153" y="525" href="#P13"></use><use x="-87" y="759" href="#P12"></use><use x="-102" y="953" href="#P1"></use><use x="-84" y="1072" href="#P3"></use><use x="-189" y="1330" href="#P5"></use><use x="-223" y="1419" href="#P12"></use><use x="-70" y="1693" href="#P9"></use><use x="-146" y="1860" href="#P8"></use><use x="-243" y="2020" href="#P11"></use><use x="-122" y="2249" href="#P3"></use><use x="-106" y="2500" href="#P5"></use><use x="-173" y="2588" href="#P0"></use><use x="-210" y="2756" href="#P8"></use><use x="-111" y="2964" href="#P5"></use><use x="-237" y="3231" href="#P5"></use><use x="-84" y="3258" href="#P0"></use><use x="-129" y="3550" href="#P10"></use><use x="-231" y="3761" href="#P8"></use><use x="-140" y="3792" href="#P8"></use><use x="-186" y="4117" href="#P1"></use><use x="-122" y="4247" href="#P9"></use><use x="-148" y="4339" href="#P11"></use><use x="-73" y="4552" href="#P8"></use><use x="-246" y="4799" href="#P1"></use><use x="-169" y="5063" href="#P10"></use><use x="-180" y="5157" href="#P4"></use><use x="-41" y="-144" href="#P12"></use><use x="-37" y="49" href="#P12"></use><use x="13" y="123" href="#P10"></use><use x="-16" y="384" href="#P4"></use><use x="69" y="667" href="#P2"></use><use x="116" y="675" href="#P11"></use><use x="29" y="865" href="#P4"></use><use x="-4" y="1110" href="#P4"></use><use x="66" y="1286" href="#P13"></use><use x="17" y="1409" href="#P13"></use><use x="-11" y="1735" href="#P7"></use><use x="63" y="1818" href="#P4"></use><use x="-9" y="1986" href="#P13"></use><use x="93" y="2303" href="#P1"></use><use x="-39" y="2361" href="#P3"></use><use x="31" y="2618" href="#P0"></use><use x="40" y="2781" href="#P9"></use><use x="-24" y="3035" href="#P12"></use><use x="-9" y="3054" href="#P9"></use><use x="-17" y="3296" href="#P1"></use><use x="43" y="3551" href="#P9"></use><use x="28" y="3617" href="#P12"></use><use x="9" y="3929" href="#P7"></use><use x="-62" y="4021" href="#P10"></use><use x="4" y="4205" href="#P1"></use><use x="-10" y="4507" href="#P11"></use><use x="91" y="4580" href="#P4"></use><use x="11" y="4778" href="#P0"></use><use x="-59" y="4980" href="#P4"></use><use x="-27" y="5166" href="#P9"></use><use x="262" y="-149" href="#P10"></use><use x="287" y="80" href="#P9"></use><use x="236" y="167" href="#P11"></use><use x="295" y="363" href="#P8"></use><use x="135" y="602" href="#P9"></use><use x="149" y="673" href="#P10"></use><use x="214" y="1004" href="#P12"></use><use x="259" y="1217" href="#P6"></use><use x="198" y="1227" href="#P11"></use><use x="151" y="1438" href="#P6"></use><use x="195" y="1757" href="#P0"></use><use x="207" y="1786" href="#P12"></use><use x="268" y="2019" href="#P10"></use><use x="119" y="2281" href="#P7"></use><use x="155" y="2453" href="#P6"></use><use x="186" y="2556" href="#P13"></use><use x="298" y="2809" href="#P12"></use><use x="155" y="2929" href="#P6"></use><use x="146" y="3128" href="#P9"></use><use x="231" y="3405" href="#P6"></use><use x="269" y="3529" href="#P10"></use><use x="203" y="3649" href="#P2"></use><use x="291" y="3834" href="#P7"></use><use x="136" y="4081" href="#P0"></use><use x="160" y="4211" href="#P10"></use><use x="138" y="4473" href="#P2"></use><use x="267" y="4637" href="#P4"></use><use x="234" y="4793" href="#P13"></use><use x="197" y="5056" href="#P8"></use><use x="146" y="5093" href="#P4"></use><use x="440" y="-235" href="#P5"></use><use x="456" y="-44" href="#P0"></use><use x="360" y="237" href="#P12"></use><use x="350" y="345" href="#P0"></use><use x="429" y="492" href="#P12"></use><use x="321" y="749" href="#P10"></use><use x="320" y="938" href="#P3"></use><use x="301" y="1048" href="#P2"></use><use x="402" y="1364" href="#P7"></use><use x="307" y="1414" href="#P7"></use><use x="483" y="1686" href="#P5"></use><use x="342" y="1907" href="#P5"></use><use x="451" y="1960" href="#P2"></use><use x="426" y="2226" href="#P5"></use><use x="385" y="2360" href="#P5"></use><use x="399" y="2574" href="#P2"></use><use x="356" y="2740" href="#P4"></use><use x="368" y="2993" href="#P2"></use><use x="319" y="3204" href="#P8"></use><use x="380" y="3370" href="#P4"></use><use x="444" y="3444" href="#P2"></use><use x="371" y="3765" href="#P0"></use><use x="409" y="3841" href="#P8"></use><use x="318" y="3971" href="#P6"></use><use x="455" y="4208" href="#P8"></use><use x="430" y="4435" href="#P1"></use><use x="475" y="4645" href="#P12"></use><use x="316" y="4838" href="#P1"></use><use x="401" y="5019" href="#P4"></use><use x="318" y="5109" href="#P12"></use><use x="639" y="-124" href="#P1"></use><use x="628" y="86" href="#P1"></use><use x="631" y="142" href="#P9"></use><use x="548" y="402" href="#P12"></use><use x="548" y="664" href="#P2"></use><use x="504" y="699" href="#P12"></use><use x="489" y="1017" href="#P8"></use><use x="636" y="1215" href="#P8"></use><use x="610" y="1302" href="#P12"></use><use x="661" y="1401" href="#P2"></use><use x="531" y="1597" href="#P9"></use><use x="660" y="1815" href="#P10"></use><use x="507" y="2052" href="#P5"></use><use x="628" y="2151" href="#P8"></use><use x="563" y="2371" href="#P0"></use><use x="606" y="2678" href="#P4"></use><use x="641" y="2847" href="#P1"></use><use x="615" y="2988" href="#P13"></use><use x="601" y="3055" href="#P9"></use><use x="557" y="3296" href="#P0"></use><use x="587" y="3541" href="#P4"></use><use x="578" y="3660" href="#P5"></use><use x="646" y="3802" href="#P4"></use><use x="615" y="4109" href="#P2"></use><use x="517" y="4259" href="#P13"></use><use x="506" y="4346" href="#P2"></use><use x="484" y="4641" href="#P7"></use><use x="510" y="4805" href="#P2"></use><use x="660" y="4908" href="#P12"></use><use x="584" y="5225" href="#P8"></use><use x="818" y="-187" href="#P2"></use><use x="713" y="15" href="#P3"></use><use x="701" y="187" href="#P5"></use><use x="830" y="389" href="#P11"></use><use x="774" y="581" href="#P0"></use><use x="686" y="780" href="#P11"></use><use x="753" y="983" href="#P6"></use><use x="679" y="1184" href="#P12"></use><use x="819" y="1250" href="#P10"></use><use x="828" y="1439" href="#P7"></use><use x="802" y="1632" href="#P9"></use><use x="785" y="1904" href="#P2"></use><use x="780" y="1982" href="#P2"></use><use x="793" y="2304" href="#P13"></use><use x="738" y="2420" href="#P1"></use><use x="847" y="2682" href="#P5"></use><use x="824" y="2814" href="#P6"></use><use x="709" y="3007" href="#P7"></use><use x="757" y="3125" href="#P9"></use><use x="794" y="3237" href="#P0"></use><use x="831" y="3574" href="#P13"></use><use x="787" y="3607" href="#P8"></use><use x="803" y="3885" href="#P0"></use><use x="784" y="4095" href="#P11"></use><use x="800" y="4263" href="#P6"></use><use x="682" y="4514" href="#P8"></use><use x="781" y="4634" href="#P6"></use><use x="780" y="4852" href="#P0"></use><use x="755" y="4971" href="#P2"></use><use x="689" y="5129" href="#P4"></use><use x="1017" y="-137" href="#P5"></use><use x="948" y="90" href="#P9"></use><use x="922" y="282" href="#P4"></use><use x="983" y="375" href="#P9"></use><use x="1032" y="659" href="#P0"></use><use x="1018" y="787" href="#P5"></use><use x="941" y="956" href="#P4"></use><use x="926" y="1086" href="#P4"></use><use x="898" y="1259" href="#P8"></use><use x="948" y="1420" href="#P1"></use><use x="963" y="1641" href="#P5"></use><use x="971" y="1816" href="#P3"></use><use x="894" y="2015" href="#P10"></use><use x="1004" y="2249" href="#P11"></use><use x="864" y="2350" href="#P5"></use><use x="974" y="2666" href="#P13"></use><use x="969" y="2762" href="#P12"></use><use x="993" y="2922" href="#P2"></use><use x="913" y="3213" href="#P9"></use><use x="996" y="3372" href="#P12"></use><use x="922" y="3454" href="#P5"></use><use x="895" y="3670" href="#P13"></use><use x="897" y="3911" href="#P5"></use><use x="958" y="4075" href="#P2"></use><use x="970" y="4273" href="#P0"></use><use x="1006" y="4444" href="#P2"></use><use x="1033" y="4627" href="#P0"></use><use x="1008" y="4844" href="#P5"></use><use x="1027" y="5032" href="#P2"></use><use x="970" y="5181" href="#P10"></use><use x="1157" y="-183" href="#P5"></use><use x="1093" y="-51" href="#P9"></use><use x="1130" y="124" href="#P0"></use><use x="1037" y="443" href="#P10"></use><use x="1071" y="575" href="#P12"></use><use x="1166" y="725" href="#P11"></use><use x="1070" y="856" href="#P10"></use><use x="1212" y="1061" href="#P4"></use><use x="1165" y="1280" href="#P2"></use><use x="1148" y="1578" href="#P12"></use><use x="1199" y="1681" href="#P13"></use><use x="1127" y="1802" href="#P3"></use><use x="1071" y="1988" href="#P8"></use><use x="1087" y="2270" href="#P10"></use><use x="1180" y="2479" href="#P9"></use><use x="1040" y="2647" href="#P12"></use><use x="1065" y="2744" href="#P1"></use><use x="1057" y="2911" href="#P13"></use><use x="1049" y="3127" href="#P8"></use><use x="1192" y="3352" href="#P7"></use><use x="1067" y="3464" href="#P6"></use><use x="1156" y="3637" href="#P7"></use><use x="1066" y="3871" href="#P9"></use><use x="1197" y="4077" href="#P13"></use><use x="1131" y="4300" href="#P2"></use><use x="1132" y="4355" href="#P2"></use><use x="1034" y="4537" href="#P0"></use><use x="1143" y="4711" href="#P8"></use><use x="1176" y="4954" href="#P12"></use><use x="1191" y="5143" href="#P2"></use><use x="1281" y="-82" href="#P5"></use><use x="1251" y="101" href="#P10"></use><use x="1400" y="180" href="#P6"></use><use x="1223" y="337" href="#P12"></use><use x="1240" y="510" href="#P11"></use><use x="1244" y="678" href="#P7"></use><use x="1357" y="1024" href="#P6"></use><use x="1381" y="1074" href="#P12"></use><use x="1347" y="1312" href="#P7"></use><use x="1367" y="1407" href="#P7"></use><use x="1238" y="1646" href="#P4"></use><use x="1257" y="1942" href="#P3"></use><use x="1398" y="2041" href="#P3"></use><use x="1336" y="2256" href="#P6"></use><use x="1254" y="2345" href="#P1"></use><use x="1239" y="2601" href="#P3"></use><use x="1387" y="2818" href="#P7"></use><use x="1316" y="2941" href="#P6"></use><use x="1220" y="3204" href="#P7"></use><use x="1303" y="3281" href="#P1"></use><use x="1341" y="3551" href="#P12"></use><use x="1229" y="3686" href="#P9"></use><use x="1389" y="3844" href="#P1"></use><use x="1285" y="4089" href="#P12"></use><use x="1371" y="4304" href="#P13"></use><use x="1260" y="4428" href="#P6"></use><use x="1263" y="4648" href="#P0"></use><use x="1371" y="4814" href="#P13"></use><use x="1389" y="4994" href="#P7"></use><use x="1327" y="5244" href="#P2"></use><use x="1467" y="-222" href="#P11"></use><use x="1530" y="-54" href="#P10"></use><use x="1405" y="292" href="#P8"></use><use x="1573" y="338" href="#P10"></use><use x="1424" y="519" href="#P5"></use><use x="1454" y="817" href="#P8"></use><use x="1580" y="881" href="#P6"></use><use x="1521" y="1105" href="#P7"></use><use x="1443" y="1222" href="#P2"></use><use x="1413" y="1454" href="#P6"></use><use x="1509" y="1711" href="#P6"></use><use x="1465" y="1895" href="#P6"></use><use x="1528" y="2001" href="#P10"></use><use x="1511" y="2223" href="#P10"></use><use x="1558" y="2367" href="#P4"></use><use x="1559" y="2584" href="#P8"></use><use x="1536" y="2811" href="#P2"></use><use x="1441" y="3047" href="#P2"></use><use x="1417" y="3073" href="#P3"></use><use x="1533" y="3277" href="#P3"></use><use x="1476" y="3449" href="#P2"></use><use x="1512" y="3617" href="#P10"></use><use x="1521" y="3963" href="#P5"></use><use x="1415" y="3973" href="#P10"></use><use x="1558" y="4160" href="#P11"></use><use x="1434" y="4408" href="#P5"></use><use x="1511" y="4610" href="#P11"></use><use x="1429" y="4763" href="#P7"></use><use x="1578" y="4943" href="#P3"></use><use x="1455" y="5101" href="#P9"></use><use x="1670" y="-110" href="#P6"></use><use x="1726" y="-58" href="#P10"></use><use x="1711" y="263" href="#P6"></use><use x="1707" y="420" href="#P6"></use><use x="1671" y="649" href="#P4"></use><use x="1635" y="757" href="#P8"></use><use x="1620" y="984" href="#P9"></use><use x="1715" y="1161" href="#P3"></use><use x="1740" y="1319" href="#P6"></use><use x="1735" y="1469" href="#P9"></use><use x="1750" y="1681" href="#P9"></use><use x="1606" y="1922" href="#P9"></use><use x="1737" y="1985" href="#P9"></use><use x="1598" y="2253" href="#P9"></use><use x="1664" y="2357" href="#P13"></use><use x="1732" y="2649" href="#P2"></use><use x="1706" y="2736" href="#P3"></use><use x="1672" y="2992" href="#P11"></use><use x="1733" y="3214" href="#P7"></use><use x="1610" y="3254" href="#P2"></use><use x="1693" y="3523" href="#P2"></use><use x="1758" y="3649" href="#P2"></use><use x="1601" y="3815" href="#P11"></use><use x="1692" y="3976" href="#P11"></use><use x="1600" y="4191" href="#P7"></use><use x="1717" y="4515" href="#P1"></use><use x="1685" y="4548" href="#P6"></use><use x="1623" y="4766" href="#P1"></use><use x="1690" y="4940" href="#P6"></use><use x="1729" y="5197" href="#P2"></use><use x="1867" y="-149" href="#P3"></use><use x="1825" y="19" href="#P9"></use><use x="1792" y="259" href="#P13"></use><use x="1852" y="384" href="#P3"></use><use x="1887" y="597" href="#P7"></use><use x="1933" y="848" href="#P8"></use><use x="1926" y="873" href="#P5"></use><use x="1814" y="1200" href="#P9"></use><use x="1835" y="1306" href="#P6"></use><use x="1929" y="1447" href="#P0"></use><use x="1881" y="1594" href="#P8"></use><use x="1891" y="1941" href="#P8"></use><use x="1922" y="1957" href="#P8"></use><use x="1786" y="2272" href="#P1"></use><use x="1773" y="2498" href="#P12"></use><use x="1910" y="2543" href="#P9"></use><use x="1807" y="2835" href="#P0"></use><use x="1873" y="3032" href="#P11"></use><use x="1908" y="3201" href="#P2"></use><use x="1825" y="3277" href="#P13"></use><use x="1794" y="3585" href="#P11"></use><use x="1815" y="3737" href="#P10"></use><use x="1840" y="3786" href="#P7"></use><use x="1865" y="4047" href="#P5"></use><use x="1931" y="4224" href="#P11"></use><use x="1883" y="4414" href="#P9"></use><use x="1859" y="4606" href="#P7"></use><use x="1946" y="4764" href="#P3"></use><use x="1929" y="4924" href="#P6"></use><use x="1913" y="5149" href="#P10"></use><use x="2090" y="-176" href="#P8"></use><use x="1964" y="0" href="#P3"></use><use x="2065" y="167" href="#P3"></use><use x="1993" y="463" href="#P11"></use><use x="1956" y="538" href="#P6"></use><use x="2117" y="748" href="#P5"></use><use x="2046" y="909" href="#P8"></use><use x="2080" y="1099" href="#P5"></use><use x="2015" y="1264" href="#P12"></use><use x="2076" y="1486" href="#P4"></use><use x="1957" y="1710" href="#P5"></use><use x="2023" y="1781" href="#P4"></use><use x="2091" y="2133" href="#P7"></use><use x="1996" y="2181" href="#P1"></use><use x="1954" y="2365" href="#P7"></use><use x="2067" y="2559" href="#P6"></use><use x="1950" y="2845" href="#P9"></use><use x="2018" y="3014" href="#P10"></use><use x="1955" y="3170" href="#P8"></use><use x="1993" y="3304" href="#P8"></use><use x="2084" y="3505" href="#P7"></use><use x="1966" y="3659" href="#P5"></use><use x="1981" y="3827" href="#P9"></use><use x="2129" y="4148" href="#P8"></use><use x="1988" y="4173" href="#P4"></use><use x="2002" y="4391" href="#P5"></use><use x="1957" y="4649" href="#P1"></use><use x="2095" y="4767" href="#P13"></use><use x="1990" y="5026" href="#P13"></use><use x="2055" y="5199" href="#P11"></use><use x="2151" y="-75" href="#P7"></use><use x="2284" y="-23" href="#P12"></use><use x="2179" y="122" href="#P12"></use><use x="2156" y="418" href="#P4"></use><use x="2205" y="568" href="#P10"></use><use x="2222" y="671" href="#P7"></use><use x="2271" y="1027" href="#P7"></use><use x="2244" y="1185" href="#P6"></use><use x="2309" y="1397" href="#P6"></use><use x="2241" y="1457" href="#P10"></use><use x="2144" y="1650" href="#P11"></use><use x="2133" y="1936" href="#P13"></use><use x="2218" y="2027" href="#P9"></use><use x="2155" y="2230" href="#P9"></use><use x="2282" y="2441" href="#P6"></use><use x="2303" y="2647" href="#P0"></use><use x="2304" y="2862" href="#P3"></use><use x="2216" y="2949" href="#P9"></use><use x="2197" y="3233" href="#P13"></use><use x="2229" y="3320" href="#P12"></use><use x="2143" y="3522" href="#P1"></use><use x="2299" y="3758" href="#P3"></use><use x="2306" y="3921" href="#P2"></use><use x="2159" y="4025" href="#P12"></use><use x="2151" y="4274" href="#P1"></use><use x="2224" y="4508" href="#P7"></use><use x="2248" y="4570" href="#P11"></use><use x="2138" y="4819" href="#P9"></use><use x="2276" y="4886" href="#P11"></use><use x="2224" y="5098" href="#P6"></use><use x="2471" y="-208" href="#P11"></use><use x="2436" y="4" href="#P5"></use><use x="2335" y="252" href="#P4"></use><use x="2392" y="426" href="#P9"></use><use x="2352" y="587" href="#P13"></use><use x="2465" y="791" href="#P12"></use><use x="2367" y="909" href="#P0"></use><use x="2488" y="1214" href="#P13"></use><use x="2365" y="1378" href="#P11"></use><use x="2396" y="1568" href="#P0"></use><use x="2426" y="1667" href="#P9"></use><use x="2430" y="1836" href="#P11"></use><use x="2420" y="2021" href="#P2"></use><use x="2458" y="2209" href="#P5"></use><use x="2325" y="2406" href="#P9"></use><use x="2348" y="2609" href="#P2"></use><use x="2345" y="2729" href="#P10"></use><use x="2426" y="3024" href="#P2"></use><use x="2337" y="3120" href="#P8"></use><use x="2374" y="3360" href="#P2"></use><use x="2372" y="3537" href="#P5"></use><use x="2462" y="3720" href="#P5"></use><use x="2394" y="3841" href="#P8"></use><use x="2456" y="4033" href="#P5"></use><use x="2496" y="4165" href="#P9"></use><use x="2339" y="4334" href="#P4"></use><use x="2349" y="4522" href="#P11"></use><use x="2412" y="4793" href="#P4"></use><use x="2410" y="4903" href="#P9"></use><use x="2414" y="5167" href="#P5"></use><use x="2513" y="-119" href="#P12"></use><use x="2581" y="-5" href="#P13"></use><use x="2675" y="156" href="#P7"></use><use x="2553" y="423" href="#P4"></use><use x="2641" y="600" href="#P3"></use><use x="2505" y="730" href="#P11"></use><use x="2515" y="900" href="#P3"></use><use x="2576" y="1078" href="#P1"></use><use x="2617" y="1380" href="#P3"></use><use x="2538" y="1445" href="#P1"></use><use x="2643" y="1707" href="#P10"></use><use x="2647" y="1900" href="#P12"></use><use x="2662" y="2066" href="#P13"></use><use x="2503" y="2235" href="#P3"></use><use x="2600" y="2363" href="#P3"></use><use x="2640" y="2613" href="#P11"></use><use x="2540" y="2839" href="#P13"></use><use x="2500" y="2885" href="#P10"></use><use x="2594" y="3214" href="#P11"></use><use x="2644" y="3298" href="#P9"></use><use x="2550" y="3417" href="#P6"></use><use x="2585" y="3765" href="#P2"></use><use x="2681" y="3926" href="#P1"></use><use x="2520" y="4029" href="#P13"></use><use x="2660" y="4307" href="#P0"></use><use x="2621" y="4413" href="#P7"></use><use x="2623" y="4697" href="#P9"></use><use x="2617" y="4867" href="#P11"></use><use x="2662" y="4903" href="#P3"></use><use x="2664" y="5121" href="#P10"></use><use x="2788" y="-153" href="#P2"></use><use x="2726" y="111" href="#P1"></use><use x="2799" y="162" href="#P4"></use><use x="2825" y="332" href="#P13"></use><use x="2758" y="493" href="#P5"></use><use x="2795" y="825" href="#P11"></use><use x="2816" y="896" href="#P11"></use><use x="2828" y="1183" href="#P13"></use><use x="2703" y="1274" href="#P3"></use><use x="2719" y="1502" href="#P6"></use><use x="2752" y="1630" href="#P8"></use><use x="2729" y="1941" href="#P9"></use><use x="2746" y="2095" href="#P2"></use><use x="2749" y="2295" href="#P8"></use><use x="2718" y="2337" href="#P5"></use><use x="2696" y="2594" href="#P0"></use><use x="2835" y="2764" href="#P3"></use><use x="2739" y="3007" href="#P6"></use><use x="2824" y="3211" href="#P11"></use><use x="2732" y="3267" href="#P3"></use><use x="2850" y="3577" href="#P7"></use><use x="2762" y="3711" href="#P11"></use><use x="2734" y="3958" href="#P11"></use><use x="2689" y="4126" href="#P8"></use><use x="2742" y="4241" href="#P6"></use><use x="2703" y="4490" href="#P7"></use><use x="2689" y="4646" href="#P8"></use><use x="2746" y="4877" href="#P7"></use><use x="2774" y="4902" href="#P3"></use><use x="2799" y="5141" href="#P5"></use><use x="2990" y="-184" href="#P6"></use><use x="2947" y="-51" href="#P7"></use><use x="3013" y="240" href="#P2"></use><use x="3050" y="358" href="#P2"></use><use x="2926" y="625" href="#P12"></use><use x="2922" y="713" href="#P5"></use><use x="2991" y="1029" href="#P7"></use><use x="3005" y="1079" href="#P6"></use><use x="3034" y="1307" href="#P12"></use><use x="3015" y="1503" href="#P10"></use><use x="2960" y="1760" href="#P3"></use><use x="2922" y="1854" href="#P2"></use><use x="3046" y="1958" href="#P7"></use><use x="2874" y="2232" href="#P8"></use><use x="2963" y="2347" href="#P6"></use><use x="3014" y="2585" href="#P13"></use><use x="2967" y="2699" href="#P11"></use><use x="2972" y="2931" href="#P0"></use><use x="2991" y="3059" href="#P1"></use><use x="3030" y="3384" href="#P3"></use><use x="2978" y="3513" href="#P12"></use><use x="3008" y="3658" href="#P10"></use><use x="3010" y="3830" href="#P5"></use><use x="3008" y="4104" href="#P10"></use><use x="2942" y="4279" href="#P1"></use><use x="3033" y="4349" href="#P2"></use><use x="2913" y="4562" href="#P2"></use><use x="2981" y="4855" href="#P4"></use><use x="3008" y="5033" href="#P8"></use><use x="2892" y="5129" href="#P12"></use><use x="3061" y="-181" href="#P8"></use><use x="3080" y="55" href="#P10"></use><use x="3112" y="228" href="#P0"></use><use x="3177" y="418" href="#P2"></use><use x="3233" y="504" href="#P6"></use><use x="3065" y="744" href="#P13"></use><use x="3072" y="887" href="#P7"></use><use x="3210" y="1125" href="#P5"></use><use x="3161" y="1269" href="#P0"></use><use x="3226" y="1456" href="#P11"></use><use x="3133" y="1635" href="#P1"></use><use x="3057" y="1799" href="#P11"></use><use x="3201" y="2085" href="#P3"></use><use x="3130" y="2160" href="#P6"></use><use x="3191" y="2338" href="#P4"></use><use x="3102" y="2681" href="#P11"></use><use x="3163" y="2740" href="#P4"></use><use x="3185" y="3048" href="#P12"></use><use x="3135" y="3063" href="#P10"></use><use x="3193" y="3410" href="#P12"></use><use x="3199" y="3505" href="#P12"></use><use x="3220" y="3648" href="#P8"></use><use x="3198" y="3915" href="#P12"></use><use x="3213" y="4129" href="#P12"></use><use x="3107" y="4198" href="#P7"></use><use x="3057" y="4390" href="#P4"></use><use x="3216" y="4595" href="#P11"></use><use x="3169" y="4716" href="#P0"></use><use x="3105" y="5000" href="#P9"></use><use x="3088" y="5243" href="#P11"></use><use x="3248" y="-117" href="#P13"></use><use x="3398" y="100" href="#P8"></use><use x="3399" y="215" href="#P4"></use><use x="3302" y="326" href="#P1"></use><use x="3380" y="548" href="#P1"></use><use x="3407" y="733" href="#P8"></use><use x="3299" y="909" href="#P12"></use><use x="3379" y="1041" href="#P9"></use><use x="3296" y="1271" href="#P10"></use><use x="3272" y="1413" href="#P5"></use><use x="3328" y="1692" href="#P7"></use><use x="3286" y="1822" href="#P13"></use><use x="3407" y="1979" href="#P9"></use><use x="3316" y="2295" href="#P2"></use><use x="3249" y="2488" href="#P0"></use><use x="3342" y="2560" href="#P9"></use><use x="3288" y="2764" href="#P13"></use><use x="3262" y="2982" href="#P5"></use><use x="3414" y="3191" href="#P1"></use><use x="3270" y="3299" href="#P2"></use><use x="3399" y="3460" href="#P5"></use><use x="3288" y="3612" href="#P0"></use><use x="3275" y="3849" href="#P1"></use><use x="3240" y="4136" href="#P6"></use><use x="3408" y="4274" href="#P13"></use><use x="3271" y="4363" href="#P6"></use><use x="3376" y="4670" href="#P4"></use><use x="3316" y="4861" href="#P2"></use><use x="3321" y="4959" href="#P10"></use><use x="3383" y="5180" href="#P9"></use><use x="3454" y="-210" href="#P11"></use><use x="3525" y="87" href="#P9"></use><use x="3419" y="143" href="#P6"></use><use x="3453" y="455" href="#P3"></use><use x="3450" y="564" href="#P7"></use><use x="3420" y="792" href="#P5"></use><use x="3438" y="932" href="#P5"></use><use x="3479" y="1179" href="#P9"></use><use x="3487" y="1270" href="#P9"></use><use x="3531" y="1424" href="#P6"></use><use x="3459" y="1712" href="#P5"></use><use x="3538" y="1773" href="#P6"></use><use x="3473" y="2031" href="#P7"></use><use x="3507" y="2144" href="#P5"></use><use x="3597" y="2468" href="#P7"></use><use x="3528" y="2605" href="#P12"></use><use x="3459" y="2789" href="#P0"></use><use x="3578" y="3014" href="#P7"></use><use x="3588" y="3121" href="#P6"></use><use x="3555" y="3403" href="#P4"></use><use x="3420" y="3512" href="#P8"></use><use x="3496" y="3747" href="#P11"></use><use x="3461" y="3788" href="#P13"></use><use x="3421" y="4064" href="#P8"></use><use x="3486" y="4330" href="#P2"></use><use x="3564" y="4336" href="#P9"></use><use x="3490" y="4551" href="#P11"></use><use x="3474" y="4862" href="#P8"></use><use x="3417" y="4924" href="#P4"></use><use x="3518" y="5112" href="#P9"></use><use x="3679" y="-216" href="#P4"></use><use x="3617" y="95" href="#P8"></use><use x="3681" y="219" href="#P10"></use><use x="3781" y="322" href="#P8"></use><use x="3692" y="498" href="#P3"></use><use x="3666" y="743" href="#P7"></use><use x="3707" y="980" href="#P3"></use><use x="3704" y="1089" href="#P10"></use><use x="3668" y="1314" href="#P3"></use><use x="3746" y="1557" href="#P1"></use><use x="3685" y="1712" href="#P7"></use><use x="3624" y="1787" href="#P13"></use><use x="3619" y="1972" href="#P1"></use><use x="3601" y="2261" href="#P10"></use><use x="3635" y="2343" href="#P8"></use><use x="3600" y="2628" href="#P5"></use><use x="3616" y="2845" href="#P8"></use><use x="3751" y="2988" href="#P11"></use><use x="3687" y="3217" href="#P5"></use><use x="3677" y="3312" href="#P7"></use><use x="3739" y="3559" href="#P8"></use><use x="3649" y="3716" href="#P9"></use><use x="3638" y="3853" href="#P7"></use><use x="3696" y="4102" href="#P1"></use><use x="3784" y="4181" href="#P2"></use><use x="3697" y="4407" href="#P7"></use><use x="3688" y="4655" href="#P1"></use><use x="3751" y="4878" href="#P4"></use><use x="3725" y="4949" href="#P11"></use><use x="3602" y="5163" href="#P12"></use><use x="3920" y="-208" href="#P6"></use><use x="3949" y="65" href="#P6"></use><use x="3798" y="197" href="#P12"></use><use x="3808" y="365" href="#P0"></use><use x="3900" y="644" href="#P3"></use><use x="3955" y="668" href="#P0"></use><use x="3886" y="1032" href="#P10"></use><use x="3883" y="1092" href="#P8"></use><use x="3827" y="1300" href="#P0"></use><use x="3813" y="1460" href="#P1"></use><use x="3881" y="1695" href="#P1"></use><use x="3905" y="1868" href="#P9"></use><use x="3945" y="2052" href="#P3"></use><use x="3858" y="2212" href="#P13"></use><use x="3963" y="2403" href="#P5"></use><use x="3898" y="2502" href="#P12"></use><use x="3873" y="2707" href="#P1"></use><use x="3824" y="3044" href="#P2"></use><use x="3830" y="3152" href="#P5"></use><use x="3914" y="3270" href="#P3"></use><use x="3856" y="3504" href="#P9"></use><use x="3850" y="3739" href="#P4"></use><use x="3829" y="3889" href="#P9"></use><use x="3871" y="4095" href="#P13"></use><use x="3938" y="4259" href="#P8"></use><use x="3833" y="4405" href="#P0"></use><use x="3868" y="4588" href="#P9"></use><use x="3958" y="4830" href="#P0"></use><use x="3813" y="4893" href="#P3"></use><use x="3909" y="5248" href="#P4"></use><use x="4001" y="-177" href="#P11"></use><use x="4023" y="101" href="#P13"></use><use x="3982" y="254" href="#P3"></use><use x="4148" y="453" href="#P1"></use><use x="4125" y="597" href="#P0"></use><use x="4052" y="720" href="#P2"></use><use x="4056" y="938" href="#P4"></use><use x="4075" y="1172" href="#P9"></use><use x="4055" y="1372" href="#P8"></use><use x="3985" y="1508" href="#P9"></use><use x="4091" y="1696" href="#P4"></use><use x="4002" y="1781" href="#P11"></use><use x="4082" y="2111" href="#P7"></use><use x="4142" y="2239" href="#P12"></use><use x="4134" y="2317" href="#P13"></use><use x="4045" y="2577" href="#P2"></use><use x="4025" y="2810" href="#P4"></use><use x="4065" y="3038" href="#P1"></use><use x="3986" y="3075" href="#P0"></use><use x="4065" y="3387" href="#P2"></use><use x="3976" y="3432" href="#P4"></use><use x="4144" y="3662" href="#P1"></use><use x="4134" y="3786" href="#P0"></use><use x="4148" y="3989" href="#P8"></use><use x="4113" y="4321" href="#P13"></use><use x="4033" y="4435" href="#P0"></use><use x="4118" y="4585" href="#P2"></use><use x="4007" y="4715" href="#P5"></use><use x="4148" y="4941" href="#P12"></use><use x="3994" y="5218" href="#P9"></use><use x="4267" y="-219" href="#P10"></use><use x="4189" y="23" href="#P8"></use><use x="4303" y="164" href="#P7"></use><use x="4299" y="324" href="#P12"></use><use x="4314" y="505" href="#P0"></use><use x="4276" y="832" href="#P0"></use><use x="4233" y="998" href="#P6"></use><use x="4308" y="1102" href="#P12"></use><use x="4319" y="1349" href="#P13"></use><use x="4212" y="1485" href="#P12"></use><use x="4265" y="1723" href="#P9"></use><use x="4204" y="1800" href="#P7"></use><use x="4226" y="2003" href="#P4"></use><use x="4240" y="2151" href="#P3"></use><use x="4210" y="2396" href="#P1"></use><use x="4232" y="2644" href="#P10"></use><use x="4161" y="2751" href="#P9"></use><use x="4179" y="2911" href="#P5"></use><use x="4296" y="3061" href="#P7"></use><use x="4270" y="3318" href="#P10"></use><use x="4271" y="3502" href="#P0"></use><use x="4266" y="3659" href="#P10"></use><use x="4197" y="3837" href="#P3"></use><use x="4327" y="4108" href="#P8"></use><use x="4295" y="4263" href="#P12"></use><use x="4235" y="4410" href="#P12"></use><use x="4321" y="4648" href="#P6"></use><use x="4334" y="4792" href="#P0"></use><use x="4222" y="4904" href="#P1"></use><use x="4203" y="5202" href="#P12"></use><use x="4484" y="-116" href="#P6"></use><use x="4508" y="37" href="#P3"></use><use x="4354" y="275" href="#P11"></use><use x="4376" y="313" href="#P2"></use><use x="4401" y="547" href="#P12"></use><use x="4336" y="799" href="#P10"></use><use x="4457" y="925" href="#P3"></use><use x="4386" y="1097" href="#P9"></use><use x="4490" y="1394" href="#P12"></use><use x="4456" y="1438" href="#P12"></use><use x="4491" y="1747" href="#P11"></use><use x="4436" y="1832" href="#P7"></use><use x="4452" y="2118" href="#P9"></use><use x="4337" y="2208" href="#P6"></use><use x="4368" y="2498" href="#P13"></use><use x="4356" y="2524" href="#P0"></use><use x="4351" y="2785" href="#P11"></use><use x="4453" y="2973" href="#P12"></use><use x="4511" y="3105" href="#P1"></use><use x="4463" y="3252" href="#P12"></use><use x="4402" y="3453" href="#P0"></use><use x="4430" y="3614" href="#P6"></use><use x="4369" y="3836" href="#P1"></use><use x="4453" y="4105" href="#P11"></use><use x="4494" y="4160" href="#P4"></use><use x="4381" y="4359" href="#P3"></use><use x="4360" y="4541" href="#P12"></use><use x="4340" y="4735" href="#P10"></use><use x="4366" y="5041" href="#P5"></use><use x="4422" y="5078" href="#P13"></use><use x="4652" y="-128" href="#P8"></use><use x="4663" y="66" href="#P12"></use><use x="4617" y="156" href="#P9"></use><use x="4692" y="337" href="#P5"></use><use x="4567" y="607" href="#P0"></use><use x="4590" y="765" href="#P9"></use><use x="4580" y="983" href="#P11"></use><use x="4538" y="1156" href="#P3"></use><use x="4604" y="1271" href="#P4"></use><use x="4700" y="1429" href="#P0"></use><use x="4624" y="1634" href="#P0"></use><use x="4625" y="1917" href="#P7"></use><use x="4586" y="1993" href="#P2"></use><use x="4674" y="2270" href="#P7"></use><use x="4544" y="2390" href="#P3"></use><use x="4570" y="2534" href="#P3"></use><use x="4545" y="2702" href="#P11"></use><use x="4560" y="2958" href="#P6"></use><use x="4571" y="3055" href="#P2"></use><use x="4620" y="3416" href="#P11"></use><use x="4576" y="3584" href="#P6"></use><use x="4540" y="3656" href="#P2"></use><use x="4537" y="3817" href="#P10"></use><use x="4529" y="4108" href="#P7"></use><use x="4606" y="4267" href="#P5"></use><use x="4593" y="4463" href="#P5"></use><use x="4666" y="4575" href="#P10"></use><use x="4535" y="4784" href="#P5"></use><use x="4693" y="5050" href="#P2"></use><use x="4590" y="5080" href="#P8"></use><use x="4876" y="-227" href="#P8"></use><use x="4707" y="-49" href="#P6"></use><use x="4725" y="252" href="#P6"></use><use x="4767" y="302" href="#P3"></use><use x="4809" y="520" href="#P7"></use><use x="4795" y="731" href="#P12"></use><use x="4837" y="1002" href="#P8"></use><use x="4721" y="1061" href="#P0"></use><use x="4787" y="1279" href="#P4"></use><use x="4838" y="1433" href="#P11"></use><use x="4732" y="1604" href="#P13"></use><use x="4740" y="1819" href="#P12"></use><use x="4738" y="1959" href="#P2"></use><use x="4702" y="2163" href="#P4"></use><use x="4832" y="2324" href="#P13"></use><use x="4766" y="2674" href="#P3"></use><use x="4825" y="2863" href="#P7"></use><use x="4811" y="3046" href="#P0"></use><use x="4868" y="3166" href="#P11"></use><use x="4746" y="3400" href="#P1"></use><use x="4874" y="3434" href="#P5"></use><use x="4708" y="3772" href="#P9"></use><use x="4816" y="3837" href="#P11"></use><use x="4855" y="3966" href="#P7"></use><use x="4760" y="4229" href="#P3"></use><use x="4791" y="4340" href="#P1"></use><use x="4816" y="4663" href="#P13"></use><use x="4701" y="4787" href="#P1"></use><use x="4874" y="5066" href="#P13"></use><use x="4737" y="5129" href="#P3"></use><use x="4910" y="-161" href="#P2"></use><use x="4929" y="-6" href="#P5"></use><use x="4999" y="239" href="#P12"></use><use x="5009" y="310" href="#P9"></use><use x="4899" y="542" href="#P11"></use><use x="5034" y="708" href="#P6"></use><use x="4936" y="978" href="#P13"></use><use x="5052" y="1075" href="#P4"></use><use x="5042" y="1314" href="#P13"></use><use x="5039" y="1409" href="#P5"></use><use x="4905" y="1634" href="#P10"></use><use x="5009" y="1918" href="#P6"></use><use x="4935" y="2046" href="#P5"></use><use x="4959" y="2216" href="#P13"></use><use x="4933" y="2381" href="#P11"></use><use x="5065" y="2637" href="#P0"></use><use x="4961" y="2812" href="#P6"></use><use x="5050" y="2935" href="#P7"></use><use x="5048" y="3093" href="#P3"></use><use x="4977" y="3302" href="#P0"></use><use x="4896" y="3513" href="#P1"></use><use x="4897" y="3783" href="#P13"></use><use x="4929" y="3888" href="#P1"></use><use x="4958" y="4076" href="#P11"></use><use x="4941" y="4255" href="#P7"></use><use x="4903" y="4370" href="#P6"></use><use x="5046" y="4593" href="#P6"></use><use x="5013" y="4821" href="#P8"></use><use x="4978" y="4901" href="#P1"></use><use x="4920" y="5184" href="#P4"></use><use x="5114" y="-79" href="#P12"></use><use x="5119" y="75" href="#P8"></use><use x="5110" y="205" href="#P3"></use><use x="5096" y="306" href="#P10"></use><use x="5163" y="589" href="#P8"></use><use x="5243" y="795" href="#P13"></use><use x="5208" y="1009" href="#P11"></use><use x="5102" y="1161" href="#P12"></use><use x="5169" y="1373" href="#P1"></use><use x="5192" y="1517" href="#P5"></use><use x="5103" y="1715" href="#P9"></use><use x="5162" y="1892" href="#P10"></use><use x="5165" y="1994" href="#P11"></use><use x="5093" y="2263" href="#P10"></use><use x="5104" y="2390" href="#P11"></use><use x="5183" y="2602" href="#P5"></use><use x="5165" y="2844" href="#P5"></use><use x="5180" y="2869" href="#P4"></use><use x="5164" y="3053" href="#P2"></use><use x="5167" y="3409" href="#P11"></use><use x="5200" y="3536" href="#P9"></use><use x="5219" y="3646" href="#P13"></use><use x="5184" y="3871" href="#P11"></use><use x="5147" y="4122" href="#P11"></use><use x="5068" y="4193" href="#P0"></use><use x="5202" y="4389" href="#P0"></use><use x="5175" y="4631" href="#P11"></use><use x="5237" y="4795" href="#P11"></use><use x="5096" y="5001" href="#P4"></use><use x="5066" y="5070" href="#P1"></use></g></svg>