<svg id="visual" viewBox="0 0 900 600" width="900" height="600" xmlns="http://www.w3.org/2000/svg" xmlns:xlink="http://www.w3.org/1999/xlink" version="1.1"><rect x="0" y="0" width="900" height="600" fill="#ff005d"></rect><defs><linearGradient id="grad1_0" x1="33.3%" y1="100%" x2="100%" y2="0%"><stop offset="20%" stop-color="#ff005d" stop-opacity="1"></stop><stop offset="80%" stop-color="#ff005d" stop-opacity="1"></stop></linearGradient></defs><defs><linearGradient id="grad2_0" x1="0%" y1="100%" x2="66.7%" y2="0%"><stop offset="20%" stop-color="#ff005d" stop-opacity="1"></stop><stop offset="80%" stop-color="#ff005d" stop-opacity="1"></stop></linearGradient></defs><g transform="translate(900, 600)"><path d="M-486.7 0C-446.3 -39.1 -405.8 -78.2 -396.6 -128.9C-387.4 -179.5 -409.4 -241.8 -393.8 -286.1C-378.2 -330.4 -324.9 -356.7 -278.6 -383.5C-232.3 -410.2 -193 -437.3 -147.7 -454.6C-102.4 -471.9 -51.2 -479.3 0 -486.7L0 0Z" fill="#001122"></path></g><g transform="translate(0, 0)"><path d="M486.7 0C473.5 50.2 460.2 100.4 431.8 140.3C403.3 180.2 359.7 209.7 324.4 235.7C289.2 261.7 262.3 284 237.5 326.8C212.6 369.6 189.7 432.9 150.4 462.9C111.2 493 55.6 489.9 0 486.7L0 0Z" fill="#001122"></path></g></svg>