<svg width="392" height="447" viewBox="0 0 392 447" fill="none" xmlns="http://www.w3.org/2000/svg">
    <path d="M355.726 447H132.069C128.971 447 126.459 444.53 126.459 441.481C126.459 438.433 128.971 435.962 132.069 435.962H355.726C358.824 435.962 361.335 438.433 361.335 441.481C361.335 444.53 358.824 447 355.726 447Z" fill="#324B59"/>
    <path d="M40.6632 354.104C51.8937 354.104 60.9926 363.055 60.9926 374.104C60.9926 385.153 51.8937 394.104 40.6632 394.104C29.4327 394.104 20.3339 385.153 20.3339 374.104C20.3339 363.055 29.4327 354.104 40.6632 354.104Z" fill="#EF3E5C"/>
    <path d="M44.029 366.521C51.0747 366.521 57.279 370.047 60.9264 375.401C60.9544 374.971 60.9926 374.542 60.9926 374.104C60.9926 363.055 51.8937 354.104 40.6632 354.104C29.4327 354.104 20.3339 363.055 20.3339 374.104C20.3339 378.22 21.5994 382.045 23.7658 385.225C24.448 374.785 33.2428 366.521 44.029 366.521Z" fill="#E42A53"/>
    <path d="M71.1685 0.933998C82.399 0.933998 91.4978 9.88552 91.4978 20.9342C91.4978 31.9829 82.399 40.9344 71.1685 40.9344C59.938 40.9344 50.8391 31.9829 50.8391 20.9342C50.8391 9.88552 59.938 0.933998 71.1685 0.933998Z" fill="#EF3E5C"/>
    <path d="M74.5343 13.3513C81.58 13.3513 87.7842 16.8768 91.4316 22.2311C91.4597 21.8006 91.4978 21.3724 91.4978 20.9342C91.4978 9.88552 82.399 0.933998 71.1685 0.933998C59.938 0.933998 50.8391 9.88552 50.8391 20.9342C50.8391 25.0501 52.1046 28.8747 54.2711 32.0546C54.9532 21.6141 63.748 13.3513 74.5343 13.3513Z" fill="#E42A53"/>
    <path d="M343.602 176.064C354.833 176.064 363.931 185.015 363.931 196.064C363.931 207.113 354.833 216.064 343.602 216.064C332.37 216.064 323.273 207.113 323.273 196.064C323.273 185.015 332.37 176.064 343.602 176.064Z" fill="#EF3E5C"/>
    <path d="M346.968 188.481C354.012 188.481 360.218 192.006 363.865 197.361C363.893 196.93 363.933 196.502 363.933 196.064C363.933 185.015 354.834 176.064 343.603 176.064C332.372 176.064 323.274 185.015 323.274 196.064C323.274 200.18 324.539 204.004 326.706 207.184C327.387 196.744 336.181 188.481 346.968 188.481Z" fill="#E42A53"/>
    <path d="M167.722 163.165C181.78 163.165 193.156 174.578 193.156 188.64C193.156 214.115 167.722 228.617 142.31 254.092C116.898 228.617 91.4979 214.115 91.4979 188.64C91.4979 174.578 102.874 163.165 116.898 163.165C129.61 163.165 135.96 169.534 142.31 182.271C148.66 169.534 155.01 163.165 167.722 163.165Z" fill="#EF3E5C"/>
    <path d="M106.831 194.159C106.831 180.097 118.208 168.684 132.232 168.684C132.448 168.684 132.65 168.7 132.863 168.705C128.719 165.024 123.732 163.165 116.899 163.165C102.875 163.165 91.499 174.578 91.499 188.64C91.499 214.115 116.899 228.617 142.311 254.092C143.884 252.516 145.457 250.982 147.024 249.483C125.608 229.858 106.831 216.06 106.831 194.159Z" fill="#E42A53"/>
    <path d="M214.216 131.188C250.421 166.817 253.595 222.624 223.752 261.807C220.869 265.571 217.694 269.191 214.216 272.625C210.726 276.057 207.046 279.181 203.208 282.007C163.391 311.377 106.655 308.254 70.4392 272.625C30.7341 233.573 30.7341 170.24 70.4392 131.188C110.144 92.1269 174.509 92.1269 214.216 131.188ZM193.156 188.64C193.156 174.578 181.779 163.165 167.722 163.165C155.01 163.165 148.66 169.534 142.31 182.271C135.96 169.534 129.61 163.165 116.898 163.165C102.874 163.165 91.4978 174.578 91.4978 188.64C91.4978 214.115 116.898 228.617 142.31 254.092C167.722 228.617 193.156 214.115 193.156 188.64Z" fill="#CAE8FB"/>
    <path d="M76.0488 145.537C115.754 106.475 180.119 106.475 219.824 145.537C228.28 153.859 234.911 163.29 239.763 173.344C235.107 157.914 226.594 143.37 214.214 131.188C174.508 92.1258 110.144 92.1258 70.4392 131.188C39.1901 161.922 32.5528 207.691 50.4902 244.832C40.2066 210.786 48.7243 172.412 76.0488 145.537Z" fill="#AFD5E8"/>
    <path d="M242.959 102.899C293.658 152.778 298.102 230.912 256.31 285.759C252.294 291.046 247.851 296.112 242.959 300.914C238.079 305.715 232.929 310.086 227.555 314.047C171.818 355.162 92.3853 350.792 41.6853 300.914C-13.8951 246.233 -13.8951 157.579 41.6853 102.899C97.2657 48.2181 187.378 48.2181 242.959 102.899ZM223.752 261.807C253.595 222.624 250.421 166.817 214.216 131.188C174.509 92.1258 110.145 92.1258 70.4403 131.188C30.7353 170.239 30.7353 233.573 70.4403 272.625C106.656 308.254 163.392 311.377 203.209 282.007C207.048 279.181 210.726 276.057 214.217 272.625C217.692 269.193 220.867 265.571 223.752 261.807Z" fill="#8AD7F8"/>
    <path d="M48.7512 116.88C104.332 62.1995 194.445 62.1995 250.026 116.88C259.263 125.968 266.959 135.997 273.125 146.649C266.197 130.76 256.147 115.872 242.959 102.899C187.378 48.2181 97.2656 48.2181 41.6852 102.899C-4.6482 148.482 -12.348 217.672 18.569 271.111C-3.69119 220.032 6.36579 158.579 48.7512 116.88Z" fill="#6DC4E2"/>
    <path d="M242.959 300.915C247.851 296.112 252.294 291.047 256.31 285.76L286.098 315.065L257.343 343.355L227.554 314.049C232.928 310.086 238.079 305.715 242.959 300.915Z" fill="#B0B7DC"/>
    <path d="M239.764 314.785C245.138 310.822 250.289 306.451 255.168 301.651C258.089 298.784 260.829 295.813 263.433 292.768L256.309 285.759C252.293 291.046 247.85 296.112 242.958 300.914C238.078 305.715 232.928 310.086 227.554 314.047L257.343 343.353L263.072 337.715L239.764 314.785Z" fill="#97A1C9"/>
    <path d="M379.543 378.707C387.486 386.521 391.458 396.764 391.458 406.996C391.458 417.239 387.486 427.472 379.543 435.286C363.668 450.904 337.918 450.904 322.032 435.286L242.959 357.494L257.343 343.354L286.098 315.064L300.47 300.915L379.543 378.707ZM350.788 406.996C354.76 403.089 354.76 396.754 350.788 392.857C346.816 388.95 340.387 388.95 336.415 392.857C332.443 396.753 332.443 403.089 336.415 406.996C340.387 410.904 346.816 410.904 350.788 406.996Z" fill="#415A6B"/>
    <path d="M338.261 435.275L259.188 357.483L273.571 343.343L302.326 315.053L308.581 308.895L300.47 300.915L286.098 315.064L257.343 343.354L242.959 357.494L322.032 435.286C332.059 445.142 346.01 448.771 358.931 446.188C351.358 444.683 344.134 441.051 338.261 435.275Z" fill="#324B59"/>
    <path d="M350.788 392.858C354.76 396.754 354.76 403.09 350.788 406.997C346.816 410.905 340.387 410.905 336.415 406.997C332.443 403.09 332.443 396.756 336.415 392.858C340.388 388.951 346.816 388.951 350.788 392.858Z" fill="#324B59"/>
</svg>
