<svg width="190" height="221" viewBox="0 0 320 246" fill="none" xmlns="http://www.w3.org/2000/svg">
    <path d="M276.932 2.58435L2.54465 89.1684L43.0683 223.531L317.456 136.947L276.932 2.58435Z" fill="#FF4397"/>
    <path d="M43.0552 226.126C41.9708 226.126 40.9651 225.407 40.6285 224.293L0.112991 89.9335C-0.0851039 89.2749 -0.0203418 88.5618 0.294579 87.954C0.609499 87.3448 1.14791 86.8889 1.79172 86.6849L276.173 0.116697C277.514 -0.308039 278.935 0.463499 279.347 1.83253L319.864 136.191C320.062 136.849 319.997 137.562 319.682 138.17C319.368 138.779 318.829 139.235 318.185 139.439L43.8044 226.009C43.5555 226.087 43.3028 226.126 43.0552 226.126ZM5.71426 90.883L44.7339 220.277L314.26 135.24L275.241 5.84609L5.71426 90.883Z" fill="#690589"/>
    <path d="M317.46 89.1931H2.53967V243.404H317.46V89.1931Z" fill="#F4EFED"/>
    <path d="M317.46 89.1931H304.762V243.404H317.46V89.1931Z" fill="#D6D1CF"/>
    <path d="M15.2381 89.1931H2.53967V243.404H15.2381V89.1931Z" fill="white"/>
    <path d="M317.46 246H2.53968C1.13778 246 0 244.836 0 243.402V89.1931C0 87.7591 1.13778 86.5953 2.53968 86.5953H317.46C318.862 86.5953 320 87.7591 320 89.1931V243.404C320 244.837 318.862 246 317.46 246ZM5.07937 240.804H314.921V91.7909H5.07937V240.804Z" fill="#690589"/>
    <path d="M12.6984 135.301C11.2965 135.301 10.1587 134.137 10.1587 132.703V117.117C10.1587 115.683 11.2965 114.519 12.6984 114.519C14.1003 114.519 15.2381 115.683 15.2381 117.117V132.703C15.2381 134.137 14.1003 135.301 12.6984 135.301Z" fill="#690589"/>
    <path d="M41.0971 103.225C39.6952 103.225 38.5574 102.061 38.5574 100.627V89.1917C38.5574 87.7578 39.6952 86.594 41.0971 86.594C42.499 86.594 43.6368 87.7578 43.6368 89.1917V100.627C43.6368 102.062 42.499 103.225 41.0971 103.225Z" fill="#690589"/>
    <path d="M41.0971 127.022C39.6952 127.022 38.5574 125.858 38.5574 124.424V112.989C38.5574 111.555 39.6952 110.391 41.0971 110.391C42.499 110.391 43.6368 111.555 43.6368 112.989V124.424C43.6368 125.858 42.499 127.022 41.0971 127.022Z" fill="#690589"/>
    <path d="M41.0971 150.818C39.6952 150.818 38.5574 149.654 38.5574 148.22V136.784C38.5574 135.35 39.6952 134.187 41.0971 134.187C42.499 134.187 43.6368 135.35 43.6368 136.784V148.22C43.6368 149.655 42.499 150.818 41.0971 150.818Z" fill="#690589"/>
    <path d="M41.0971 174.613C39.6952 174.613 38.5574 173.449 38.5574 172.015V160.579C38.5574 159.145 39.6952 157.981 41.0971 157.981C42.499 157.981 43.6368 159.145 43.6368 160.579V172.015C43.6368 173.451 42.499 174.613 41.0971 174.613Z" fill="#690589"/>
    <path d="M41.0971 198.41C39.6952 198.41 38.5574 197.246 38.5574 195.812V184.376C38.5574 182.942 39.6952 181.778 41.0971 181.778C42.499 181.778 43.6368 182.942 43.6368 184.376V195.812C43.6368 197.246 42.499 198.41 41.0971 198.41Z" fill="#690589"/>
    <path d="M41.0971 222.206C39.6952 222.206 38.5574 221.042 38.5574 219.608V208.171C38.5574 206.737 39.6952 205.573 41.0971 205.573C42.499 205.573 43.6368 206.737 43.6368 208.171V219.608C43.6368 221.042 42.499 222.206 41.0971 222.206Z" fill="#690589"/>
    <path d="M41.0971 246C39.6952 246 38.5574 244.836 38.5574 243.402V231.967C38.5574 230.533 39.6952 229.369 41.0971 229.369C42.499 229.369 43.6368 230.533 43.6368 231.967V243.402C43.6368 244.837 42.499 246 41.0971 246Z" fill="#690589"/>
    <path d="M104.245 101.81H57.0387V132.608H104.245V101.81Z" fill="#FCC24C"/>
    <path d="M104.245 135.206H57.0387C55.6368 135.206 54.499 134.042 54.499 132.608V101.81C54.499 100.376 55.6368 99.2127 57.0387 99.2127H104.245C105.647 99.2127 106.785 100.376 106.785 101.81V132.608C106.785 134.044 105.647 135.206 104.245 135.206ZM59.5784 130.011H101.705V104.408H59.5784V130.011Z" fill="#690589"/>
    <path d="M134.621 156.282H57.0387C55.6368 156.282 54.499 155.118 54.499 153.684C54.499 152.25 55.6368 151.086 57.0387 151.086H134.621C136.023 151.086 137.161 152.25 137.161 153.684C137.161 155.118 136.024 156.282 134.621 156.282Z" fill="#690589"/>
    <path d="M134.621 174.613H57.0387C55.6368 174.613 54.499 173.449 54.499 172.015C54.499 170.581 55.6368 169.418 57.0387 169.418H134.621C136.023 169.418 137.161 170.581 137.161 172.015C137.161 173.449 136.024 174.613 134.621 174.613Z" fill="#690589"/>
    <path d="M134.621 192.946H57.0387C55.6368 192.946 54.499 191.782 54.499 190.348C54.499 188.914 55.6368 187.75 57.0387 187.75H134.621C136.023 187.75 137.161 188.914 137.161 190.348C137.161 191.782 136.024 192.946 134.621 192.946Z" fill="#690589"/>
    <path d="M134.621 211.277H57.0387C55.6368 211.277 54.499 210.113 54.499 208.679C54.499 207.245 55.6368 206.081 57.0387 206.081H134.621C136.023 206.081 137.161 207.245 137.161 208.679C137.161 210.113 136.024 211.277 134.621 211.277Z" fill="#690589"/>
    <path d="M104.245 229.609H57.0387C55.6368 229.609 54.499 228.445 54.499 227.011C54.499 225.578 55.6368 224.414 57.0387 224.414H104.245C105.647 224.414 106.785 225.578 106.785 227.011C106.785 228.445 105.647 229.609 104.245 229.609Z" fill="#690589"/>
</svg>
