<svg id="Layer_1" data-name="Layer 1" xmlns="http://www.w3.org/2000/svg" viewBox="0 0 500 500"><defs><style>.cls-1{fill:#e5e6e6;}.cls-2{fill:#c8c8c8;}.cls-3{fill:#ffd03b;}.cls-4{fill:#faac48;}.cls-5{fill:none;stroke:#000;stroke-linecap:round;stroke-linejoin:round;stroke-width:20px;}.cls-6{fill:#ed2b2f;}.cls-7{fill:#be2126;}</style></defs><title>champagne </title><path class="cls-1" d="M143.17,363.18h0a67.2,67.2,0,0,1-66.71-75.29l16.9-169.72H193l16.91,169.72a67.21,67.21,0,0,1-66.72,75.29Z"/><path class="cls-2" d="M209.89,287.89,193,118.17H163.85l16.9,169.72A67.23,67.23,0,0,1,128.6,361.6a67.83,67.83,0,0,0,14.57,1.58h0A67.21,67.21,0,0,0,209.89,287.89Z"/><path class="cls-3" d="M209.89,287.89a67.21,67.21,0,0,1-66.72,75.29h0a67.2,67.2,0,0,1-66.71-75.29L85.31,199H201Z"/><path class="cls-4" d="M209.89,287.89,201,199H171.9l8.85,88.87A67.23,67.23,0,0,1,128.6,361.6a67.27,67.27,0,0,0,81.29-73.71Z"/><line class="cls-5" x1="143.17" y1="363.18" x2="143.17" y2="488.73"/><line class="cls-5" x1="198.65" y1="488.73" x2="90.06" y2="488.73"/><path class="cls-5" d="M143.17,363.18h0a67.2,67.2,0,0,1-66.71-75.29l16.9-169.72H193l16.91,169.72a67.21,67.21,0,0,1-66.72,75.29Z"/><path class="cls-5" d="M209.89,287.89a67.21,67.21,0,0,1-66.72,75.29h0a67.2,67.2,0,0,1-66.71-75.29L85.31,199H201Z"/><path class="cls-1" d="M356.83,363.18h0a67.21,67.21,0,0,1-66.72-75.29L307,118.17h99.62l16.9,169.72a67.2,67.2,0,0,1-66.71,75.29Z"/><path class="cls-2" d="M423.54,287.89l-16.9-169.72H377.5l16.91,169.72a67.25,67.25,0,0,1-52.15,73.71,67.69,67.69,0,0,0,14.57,1.58h0A67.2,67.2,0,0,0,423.54,287.89Z"/><path class="cls-3" d="M423.54,287.89a67.2,67.2,0,0,1-66.71,75.29h0a67.21,67.21,0,0,1-66.72-75.29L299,199H414.69Z"/><path class="cls-4" d="M423.54,287.89,414.69,199H385.55l8.86,88.87a67.25,67.25,0,0,1-52.15,73.71,67.27,67.27,0,0,0,81.28-73.71Z"/><line class="cls-5" x1="356.83" y1="363.18" x2="356.83" y2="488.73"/><line class="cls-5" x1="412.31" y1="488.73" x2="303.71" y2="488.73"/><path class="cls-5" d="M356.83,363.18h0a67.21,67.21,0,0,1-66.72-75.29L307,118.17h99.62l16.9,169.72a67.2,67.2,0,0,1-66.71,75.29Z"/><path class="cls-5" d="M423.54,287.89a67.2,67.2,0,0,1-66.71,75.29h0a67.21,67.21,0,0,1-66.72-75.29L299,199H414.69Z"/><path class="cls-6" d="M250,27.16c6.6-21.06,48.47-24.48,53.2,10.1,5.38,39.33-53.2,67.81-53.2,67.81s-58.58-28.48-53.2-67.81C201.53,2.68,243.4,6.1,250,27.16Z"/><path class="cls-7" d="M303.2,37.26C299.89,13,278.36,7.47,263.49,13.53c8.17,3.46,14.92,11,16.66,23.73,3.84,28.07-24.91,50.62-41.68,61.22,6.73,4.25,11.53,6.59,11.53,6.59S308.58,76.59,303.2,37.26Z"/><path class="cls-5" d="M250,27.16c6.6-21.06,48.47-24.48,53.2,10.1,5.38,39.33-53.2,67.81-53.2,67.81s-58.58-28.48-53.2-67.81C201.53,2.68,243.4,6.1,250,27.16Z"/></svg>