<svg width="190" height="221" viewBox="0 0 190 221" fill="none" xmlns="http://www.w3.org/2000/svg">
    <path d="M187.647 201.613H1.50117V219.188H187.647V201.613Z" fill="#8852A8"/>
    <path d="M177.359 184.037H11.7895V201.613H177.359V184.037Z" fill="#FCC24C"/>
    <path d="M164.881 73.0381H24.2674V184.037H164.881V73.0381Z" fill="#8852A8"/>
    <path d="M177.359 184.037H169.853V201.613H177.359V184.037Z" fill="#DEA42E"/>
    <path d="M19.2953 184.037H11.7895V201.613H19.2953V184.037Z" fill="#FCE06A"/>
    <path d="M187.647 201.613H180.141V219.188H187.647V201.613Z" fill="#6A348A"/>
    <path d="M9.00706 201.613H1.50117V219.188H9.00706V201.613Z" fill="#A670C6"/>
    <path d="M164.881 73.0381H157.375V184.037H164.881V73.0381Z" fill="#6A348A"/>
    <path d="M31.7733 73.0381H24.2674V184.037H31.7733V73.0381Z" fill="#A670C6"/>
    <path d="M60.4329 92.6095H34.8341V148.41H60.4329V92.6095Z" fill="#F4EFED"/>
    <path d="M154.314 92.6095H128.715V148.41H154.314V92.6095Z" fill="#F4EFED"/>
    <path d="M94.5742 107.745C81.929 107.745 71.6783 119.824 71.6783 134.724V184.037H117.47V134.724C117.47 119.824 107.219 107.745 94.5742 107.745Z" fill="#FCC24C"/>
    <path d="M169.901 73.0381H19.2473C15.1288 73.0381 11.7895 69.104 11.7895 64.2501C11.7895 59.397 15.1281 55.462 19.2473 55.462H169.901C174.019 55.462 177.359 59.3961 177.359 64.2501C177.359 69.104 174.019 73.0381 169.901 73.0381Z" fill="#FCC24C"/>
    <path d="M169.901 55.463H162.395C166.514 55.463 169.853 59.3971 169.853 64.251C169.853 69.1041 166.514 73.039 162.395 73.039H169.901C174.02 73.039 177.359 69.1049 177.359 64.251C177.359 59.3971 174.02 55.463 169.901 55.463Z" fill="#DEA42E"/>
    <path d="M19.2473 73.0381H26.7532C22.6347 73.0381 19.2953 69.104 19.2953 64.2501C19.2953 59.397 22.634 55.462 26.7532 55.462H19.2473C15.1288 55.462 11.7895 59.3961 11.7895 64.2501C11.7895 69.104 15.1281 73.0381 19.2473 73.0381Z" fill="#FCE06A"/>
    <path d="M169.901 74.807H19.2473C14.3077 74.807 10.2883 70.0716 10.2883 64.2501C10.2883 58.4285 14.3069 53.6931 19.2473 53.6931H169.902C174.841 53.6931 178.861 58.4285 178.861 64.2501C178.861 70.0716 174.841 74.807 169.901 74.807ZM19.2473 57.2319C15.9635 57.2319 13.2906 60.3805 13.2906 64.251C13.2906 68.1214 15.9627 71.2701 19.2473 71.2701H169.902C173.186 71.2701 175.858 68.1214 175.858 64.251C175.858 60.3805 173.186 57.2319 169.902 57.2319H19.2473Z" fill="#690589"/>
    <path d="M177.359 203.382H11.7895C10.9608 203.382 10.2883 202.589 10.2883 201.613V184.037C10.2883 183.061 10.9608 182.269 11.7895 182.269H177.359C178.188 182.269 178.86 183.061 178.86 184.037V201.613C178.86 202.589 178.188 203.382 177.359 203.382ZM13.2906 199.844H175.858V185.806H13.2906V199.844Z" fill="#690589"/>
    <path d="M187.647 220.957H1.50118C0.672528 220.957 0 220.164 0 219.188V201.612C0 200.635 0.672528 199.843 1.50118 199.843H187.647C188.476 199.843 189.148 200.635 189.148 201.612V219.188C189.148 220.165 188.476 220.957 187.647 220.957ZM3.00236 217.419H186.146V203.381H3.00236V217.419Z" fill="#690589"/>
    <path d="M164.881 185.806H24.2674C23.4387 185.806 22.7662 185.013 22.7662 184.037V73.0382C22.7662 72.0617 23.4387 71.2692 24.2674 71.2692H164.881C165.71 71.2692 166.382 72.0617 166.382 73.0382V184.037C166.382 185.014 165.71 185.806 164.881 185.806ZM25.7685 182.268H163.38V74.8071H25.7685V182.268Z" fill="#690589"/>
    <path d="M117.47 185.806H71.6783C70.8496 185.806 70.1771 185.013 70.1771 184.037V134.724C70.1771 118.872 81.1214 105.976 94.5742 105.976C108.027 105.976 118.971 118.872 118.971 134.724V184.037C118.971 185.014 118.299 185.806 117.47 185.806ZM73.1794 182.268H115.969V134.724C115.969 120.823 106.371 109.514 94.5742 109.514C82.7772 109.514 73.1794 120.823 73.1794 134.724V182.268V182.268Z" fill="#690589"/>
    <path d="M94.5742 185.806C93.7456 185.806 93.0731 185.013 93.0731 184.037V107.745C93.0731 106.768 93.7456 105.976 94.5742 105.976C95.4029 105.976 96.0754 106.768 96.0754 107.745V184.037C96.0754 185.014 95.4029 185.806 94.5742 185.806Z" fill="#690589"/>
    <path d="M60.4337 150.18H34.8349C34.0062 150.18 33.3337 149.388 33.3337 148.411V92.6105C33.3337 91.634 34.0062 90.8415 34.8349 90.8415H60.4337C61.2624 90.8415 61.9349 91.634 61.9349 92.6105V148.411C61.9349 149.388 61.2624 150.18 60.4337 150.18ZM36.3361 146.642H58.9325V94.3794H36.3361V146.642Z" fill="#690589"/>
    <path d="M154.314 150.18H128.715C127.886 150.18 127.214 149.388 127.214 148.411V92.6105C127.214 91.634 127.886 90.8415 128.715 90.8415H154.314C155.142 90.8415 155.815 91.634 155.815 92.6105V148.411C155.815 149.388 155.143 150.18 154.314 150.18ZM130.216 146.642H152.812V94.3794H130.216V146.642Z" fill="#690589"/>
    <path d="M125.459 73.0382H63.689C46.9876 73.0382 33.4477 57.0842 33.4477 37.404C33.4477 17.7238 46.9869 1.76984 63.689 1.76984H125.459C142.161 1.76984 155.7 17.7238 155.7 37.404C155.7 57.0842 142.161 73.0382 125.459 73.0382Z" fill="#FF4397"/>
    <path d="M125.459 1.76892H120.205C136.907 1.76892 150.446 17.7229 150.446 37.4031C150.446 57.0833 136.907 73.0373 120.205 73.0373H125.459C142.161 73.0373 155.7 57.0833 155.7 37.4031C155.7 17.7229 142.161 1.76892 125.459 1.76892Z" fill="#E12579"/>
    <path d="M63.689 73.0382H68.9431C52.2417 73.0382 38.7019 57.0842 38.7019 37.404C38.7019 17.7238 52.241 1.76984 68.9431 1.76984H63.689C46.9876 1.76984 33.4477 17.7238 33.4477 37.404C33.4477 57.0842 46.9876 73.0382 63.689 73.0382Z" fill="#FF61B5"/>
    <path d="M125.459 13.9569H63.689C52.7177 13.9569 43.7917 24.4749 43.7917 37.4031C43.7917 50.3313 52.7177 60.8503 63.689 60.8503H125.459C136.431 60.8503 145.357 50.3322 145.357 37.404C145.357 24.4749 136.431 13.9569 125.459 13.9569Z" fill="#F4EFED"/>
    <path d="M125.459 74.8071H63.689C46.1867 74.8071 31.9466 58.0279 31.9466 37.4031C31.9466 16.7783 46.1867 0 63.689 0H125.459C142.962 0 157.202 16.7792 157.202 37.404C157.202 58.0288 142.962 74.8071 125.459 74.8071ZM63.689 3.53786C47.8418 3.53786 34.9489 18.7303 34.9489 37.404C34.9489 56.0777 47.8418 71.2701 63.689 71.2701H125.459C141.307 71.2701 154.2 56.0777 154.2 37.404C154.2 18.7303 141.307 3.53786 125.459 3.53786H63.689V3.53786Z" fill="#690589"/>
    <path d="M125.459 62.6192H63.689C51.8898 62.6192 42.2905 51.3078 42.2905 37.404C42.2905 23.5003 51.8898 12.188 63.689 12.188H125.459C137.259 12.188 146.858 23.4994 146.858 37.4031C146.858 51.3069 137.259 62.6192 125.459 62.6192ZM63.689 15.7258C53.5448 15.7258 45.2928 25.4505 45.2928 37.4031C45.2928 49.3558 53.5456 59.0805 63.689 59.0805H125.459C135.604 59.0805 143.856 49.3558 143.856 37.4031C143.856 25.4505 135.604 15.7258 125.459 15.7258H63.689Z" fill="#690589"/>
    <path d="M63.5006 39.0014C63.5006 39.7912 62.9422 40.4492 62.2944 40.4492C61.6024 40.4492 61.0657 39.7912 61.0657 39.0014V23.7116C61.0657 23.7116 61.0657 23.7116 61.0657 23.6851C61.0439 23.2375 61.2226 22.7644 61.5573 22.4743C62.1158 22.0267 62.8746 22.1585 63.2544 22.79L70.4683 34.5534V23.7116C70.4683 22.9483 71.0042 22.2903 71.6745 22.2903C72.3448 22.2903 72.9025 22.9483 72.9025 23.7116V39.0014C72.9025 39.7912 72.344 40.4492 71.6745 40.4492C71.3172 40.4492 70.9825 40.2387 70.7588 39.923C70.7138 39.8699 70.6695 39.8177 70.6477 39.7655L63.5014 28.0809V39.0014H63.5006Z" fill="#690589"/>
    <path d="M77.6364 23.4746C77.6364 22.6591 78.1724 22.0276 78.8652 22.0276C79.5354 22.0276 80.1156 22.6591 80.1156 23.4746V39.0014C80.1156 39.8168 79.5354 40.4492 78.8652 40.4492C78.1731 40.4492 77.6364 39.8177 77.6364 39.0014V23.4746Z" fill="#690589"/>
    <path d="M83.5984 31.0014C83.5984 25.7114 87.3056 21.5014 91.8391 21.5014C93.7374 21.5014 95.5463 22.2647 96.9311 23.5542C97.5113 24.0539 97.6014 25.0286 97.1766 25.6858C96.7525 26.3173 95.9261 26.4491 95.3677 25.9228C94.4077 25.0543 93.1789 24.5015 91.8391 24.5015C90.2314 24.5015 88.824 25.2117 87.8197 26.4225C86.7704 27.6068 86.1444 29.2121 86.1444 31.0014C86.1444 32.7385 86.7697 34.3438 87.8197 35.5281C88.8248 36.7389 90.2314 37.4491 91.8391 37.4491C92.956 37.4491 94.0053 37.0547 94.8993 36.4488V32.8437H91.7055C91.0135 32.8437 90.4325 32.1592 90.4325 31.3437C90.4325 30.5017 91.0135 29.8693 91.7055 29.8693H96.1047C96.1273 29.8693 96.1273 29.8693 96.1273 29.8693C96.1498 29.8693 96.1498 29.8693 96.1498 29.8693C96.8643 29.8693 97.4453 30.5008 97.4453 31.3437V37.1599C97.4453 37.3439 97.4002 37.4491 97.3785 37.6075C97.356 37.6605 97.356 37.6862 97.3334 37.7384V37.7649C97.2666 38.0019 97.1323 38.2124 96.9094 38.3964C95.5028 39.686 93.7381 40.4493 91.8399 40.4493C87.3063 40.4493 83.5984 36.2648 83.5984 31.0014Z" fill="#690589"/>
    <path d="M101.464 39.0014V23.4746C101.464 22.6591 102 22.0276 102.693 22.0276C103.385 22.0276 103.944 22.6591 103.944 23.4746V29.7906H109.728V23.4746C109.728 22.6591 110.264 22.0276 110.957 22.0276C111.649 22.0276 112.207 22.6591 112.207 23.4746V39.0014C112.207 39.8168 111.649 40.4492 110.957 40.4492C110.265 40.4492 109.728 39.8177 109.728 39.0014V32.6854H103.944V39.0014C103.944 39.8168 103.385 40.4492 102.693 40.4492C102 40.4492 101.464 39.8168 101.464 39.0014Z" fill="#690589"/>
    <path d="M126.856 24.9481H123.304V39.0013C123.304 39.8168 122.769 40.4492 122.076 40.4492C121.406 40.4492 120.848 39.8177 120.848 39.0013V24.9481H117.319C116.627 24.9481 116.091 24.2635 116.091 23.4737C116.091 22.6582 116.627 22.0267 117.319 22.0267H126.855C127.525 22.0267 128.083 22.6582 128.083 23.4737C128.084 24.2635 127.526 24.9481 126.856 24.9481Z" fill="#690589"/>
    <path d="M78.339 50.3721C78.348 48.2715 79.8424 46.5644 81.6431 46.5538C82.4349 46.5538 83.1555 46.8616 83.7222 47.3817C83.9384 47.594 83.9744 47.9654 83.8123 48.2308C83.6321 48.4961 83.2989 48.5386 83.0925 48.3475C82.6961 47.9654 82.2008 47.7638 81.6431 47.7638C81.0216 47.7638 80.4459 48.061 80.0225 48.528C79.618 49.0153 79.3658 49.6521 79.3658 50.3729C79.3658 51.0947 79.618 51.7527 80.0225 52.2188C80.4459 52.6858 81.0223 52.983 81.6431 52.983C82.2008 52.983 82.6871 52.7813 83.0925 52.3993C83.2996 52.2188 83.6329 52.2613 83.8123 52.516C83.9744 52.7813 83.9384 53.1625 83.7222 53.3642C83.1555 53.8843 82.4349 54.1912 81.6431 54.1912C79.8424 54.1912 78.348 52.4833 78.339 50.3721Z" fill="#690589"/>
    <path d="M88.264 53.6073V47.3489C88.264 47.0305 88.4802 46.7651 88.7594 46.7651C89.0386 46.7651 89.2638 47.0305 89.2638 47.3489V53.0139H91.7032C91.9644 53.0139 92.1986 53.2792 92.1986 53.6073C92.1986 53.9257 91.9644 54.1911 91.7032 54.1911H88.7864C88.7684 54.1911 88.7684 54.1911 88.7684 54.1911C88.7594 54.1911 88.7594 54.1911 88.7594 54.1911C88.4802 54.1911 88.264 53.9257 88.264 53.6073Z" fill="#690589"/>
    <path d="M98.6476 54.1911C97.1982 54.1911 96.0461 52.8122 96.0461 51.1255V47.3489C96.0461 47.0198 96.2623 46.7651 96.5415 46.7651C96.8117 46.7651 97.0451 47.0198 97.0451 47.3489V51.1255C97.0451 52.1657 97.7657 53.0139 98.6476 53.0139C99.5386 53.0139 100.25 52.1657 100.25 51.1255V47.3489C100.25 47.0198 100.475 46.7651 100.754 46.7651C101.033 46.7651 101.249 47.0198 101.249 47.3489V51.1255C101.249 52.8122 100.088 54.1911 98.6476 54.1911Z" fill="#690589"/>
    <path d="M106.071 53.6073V47.3489C106.071 47.0198 106.296 46.7651 106.566 46.7651C106.575 46.7651 106.575 46.7651 106.593 46.7651C106.593 46.7651 106.593 46.7651 106.602 46.7651H107.845C108.79 46.7651 109.555 47.6664 109.555 48.7808C109.555 49.2372 109.429 49.6502 109.213 49.9899C109.753 50.3932 110.122 51.1034 110.122 51.91C110.122 53.1722 109.258 54.1911 108.195 54.1911H106.602C106.593 54.1911 106.593 54.1805 106.593 54.1805C106.575 54.1805 106.575 54.1911 106.566 54.1911C106.296 54.1911 106.071 53.9257 106.071 53.6073ZM107.07 49.6405H107.844C108.24 49.6405 108.555 49.2478 108.555 48.7808C108.555 48.3138 108.24 47.9432 107.844 47.9432H107.07V49.6405ZM107.07 53.0139H108.195C108.709 53.0032 109.122 52.5256 109.122 51.91C109.122 51.3051 108.708 50.8283 108.195 50.8177H107.07V53.0139Z" fill="#690589"/>
    <path d="M31.7732 168.551C30.9446 168.551 30.2721 167.758 30.2721 166.782V156.168C30.2721 155.192 30.9446 154.399 31.7732 154.399C32.6019 154.399 33.2744 155.192 33.2744 156.168V166.782C33.2744 167.759 32.6026 168.551 31.7732 168.551Z" fill="#690589"/>
</svg>
