<svg width="191" height="217" viewBox="0 0 191 217" fill="none" xmlns="http://www.w3.org/2000/svg">
    <path d="M58.5353 215.335L42.4069 178.913L1.81528 191.553L45.0411 104.858L101.761 128.638L58.5353 215.335Z" fill="#FF4397"/>
    <path d="M95.6445 126.075L55.0565 207.48L58.5352 215.335L101.761 128.638L95.6445 126.075Z" fill="#E12579"/>
    <path d="M51.1576 107.422L10.5696 188.827L1.81528 191.553L45.0411 104.858L51.1576 107.422Z" fill="#FF61B5"/>
    <path d="M58.5352 217C58.5225 217 58.5089 217 58.4962 217C57.7716 216.986 57.1251 216.578 56.8527 215.962L41.369 180.995L2.39998 193.131C1.71351 193.345 0.953486 193.164 0.468599 192.67C-0.0171971 192.177 -0.137058 191.466 0.164408 190.862L43.3902 104.165C43.807 103.33 44.8848 102.961 45.7965 103.344L102.517 127.125C102.954 127.309 103.295 127.644 103.463 128.058C103.632 128.472 103.613 128.93 103.413 129.332L60.187 216.027C59.8909 216.62 59.2444 217 58.5352 217ZM42.4068 177.247C43.1269 177.247 43.8043 177.642 44.0894 178.286L58.6342 211.131L99.3548 129.46L45.9382 107.065L5.21759 188.736L41.8221 177.336C42.0155 177.276 42.2125 177.247 42.4068 177.247Z" fill="#690589"/>
    <path d="M132.465 215.335L148.594 178.913L189.184 191.553L145.958 104.858L89.2394 128.638L132.465 215.335Z" fill="#FF4397"/>
    <path d="M95.3549 126.075L135.944 207.48L132.465 215.335L89.2394 128.638L95.3549 126.075Z" fill="#FF61B5"/>
    <path d="M139.843 107.422L180.431 188.827L189.184 191.553L145.959 104.858L139.843 107.422Z" fill="#E12579"/>
    <path d="M132.465 217C131.756 217 131.109 216.62 130.813 216.027L87.5876 129.331C87.1708 128.495 87.5722 127.507 88.4838 127.125L145.203 103.344C146.115 102.961 147.192 103.329 147.61 104.165L190.836 190.862C191.137 191.466 191.018 192.177 190.532 192.67C190.046 193.163 189.287 193.346 188.599 193.131L149.631 180.994L134.147 215.961C133.873 216.577 133.227 216.985 132.502 216.999C132.491 217 132.479 217 132.465 217ZM91.6456 129.461L132.366 211.132L146.91 178.287C147.272 177.469 148.268 177.054 149.177 177.336L185.782 188.736L145.061 107.065L91.6456 129.461Z" fill="#690589"/>
    <path d="M105.497 10.2833C120.662 5.78185 137.146 12.0435 144.399 25.0599C147.506 30.638 152.454 35.1744 158.536 38.0238C172.73 44.6735 179.558 59.7907 174.649 73.6971C172.546 79.6566 172.546 86.0723 174.649 92.0309C179.558 105.937 172.73 121.054 158.536 127.704C152.453 130.554 147.506 135.091 144.399 140.668C137.147 153.684 120.662 159.946 105.497 155.445C98.998 153.515 92.0016 153.515 85.5038 155.445C70.3388 159.946 53.8544 153.684 46.602 140.668C43.4947 135.09 38.5469 130.554 32.4649 127.704C18.2706 121.055 11.4422 105.937 16.351 92.0309C18.4549 86.0715 18.4549 79.6557 16.351 73.6971C11.4422 59.7907 18.2706 44.6743 32.4649 38.0238C38.5478 35.1744 43.4947 30.6371 46.602 25.0599C53.8535 12.0427 70.3388 5.78102 85.5038 10.2833C92.0016 12.2117 98.998 12.2117 105.497 10.2833Z" fill="#FCC24C"/>
    <path d="M174.649 92.0308C172.546 86.0714 172.546 79.6557 174.649 73.6971C179.558 59.7906 172.73 44.6743 158.536 38.0237C152.453 35.1743 147.506 30.6371 144.398 25.0598C138.109 13.7688 124.871 7.56623 111.575 9.05588C122.004 10.2233 131.517 16.0045 136.562 25.059C139.669 30.6371 144.617 35.1735 150.699 38.0229C164.894 44.6726 171.722 59.7898 166.813 73.6962C164.709 79.6557 164.709 86.0714 166.813 92.03C171.722 105.936 164.894 121.053 150.699 127.703C144.616 130.553 139.669 135.09 136.562 140.667C131.517 149.723 122.003 155.503 111.575 156.67C124.871 158.16 138.109 151.957 144.398 140.667C147.506 135.089 152.454 130.553 158.536 127.703C172.73 121.054 179.558 105.936 174.649 92.0308Z" fill="#DEA42E"/>
    <path d="M16.351 73.6962C18.4549 79.6557 18.4549 86.0714 16.351 92.03C11.4422 105.936 18.2706 121.053 32.4649 127.703C38.5478 130.553 43.4947 135.09 46.602 140.667C52.8919 151.957 66.1292 158.16 79.4254 156.67C68.9967 155.503 59.4824 149.722 54.4383 140.667C51.331 135.089 46.3831 130.553 40.3012 127.703C26.1069 121.054 19.2785 105.936 24.1873 92.03C26.2912 86.0706 26.2912 79.6548 24.1873 73.6962C19.2785 59.7898 26.1069 44.6734 40.3012 38.0229C46.3841 35.1735 51.331 30.6363 54.4383 25.059C59.4833 16.0037 68.9976 10.2233 79.4254 9.05588C66.1292 7.56623 52.8919 13.7688 46.602 25.059C43.4947 30.6371 38.5469 35.1735 32.4649 38.0229C18.2706 44.6734 11.4422 59.7906 16.351 73.6962Z" fill="#FCE06A"/>
    <path d="M75.4092 158.581C62.8411 158.581 50.9959 152.215 44.9847 141.426C42.0327 136.127 37.4172 131.894 31.6385 129.187C16.567 122.126 9.41087 106.284 14.6239 91.5179C16.6224 85.8566 16.6224 79.8714 14.6239 74.21C9.41178 59.4442 16.567 43.6018 31.6385 36.5408C37.4172 33.8337 42.0327 29.6013 44.9847 24.3022C52.6857 10.4806 69.9619 3.91834 86.0631 8.69871C92.2368 10.5314 98.7646 10.5314 104.937 8.69871C121.045 3.91834 138.317 10.4815 146.016 24.3013C148.969 29.6004 153.583 33.8329 159.362 36.5399C174.434 43.601 181.59 59.4434 176.377 74.2092C174.379 79.8705 174.379 85.8558 176.377 91.5179C181.59 106.284 174.433 122.126 159.362 129.187C153.583 131.894 148.969 136.127 146.016 141.426C138.317 155.247 121.041 161.807 104.937 157.028C98.7646 155.196 92.2377 155.196 86.0631 157.028C82.5308 158.078 78.9414 158.58 75.4092 158.581ZM75.4191 10.4806C64.1832 10.4806 53.5928 16.1711 48.2191 25.8168C44.9166 31.7437 39.7545 36.4775 33.2902 39.5059C19.816 45.8192 13.418 59.983 18.0789 73.1833C20.3145 79.5158 20.3145 86.2113 18.0789 92.5438C13.4189 105.745 19.8169 119.908 33.2911 126.22C39.7545 129.249 44.9166 133.983 48.2191 139.91C55.1029 152.266 70.5503 158.132 84.9435 153.859C91.849 151.809 99.1505 151.809 106.055 153.859C120.449 158.133 135.896 152.266 142.779 139.91C146.083 133.983 151.244 129.249 157.707 126.22C171.183 119.907 177.581 105.744 172.921 92.543C170.685 86.2105 170.685 79.515 172.921 73.1833C177.581 59.9822 171.183 45.8184 157.707 39.5059C151.244 36.4775 146.082 31.7437 142.779 25.8168C135.895 13.4599 120.447 7.59458 106.055 11.867C99.1496 13.9171 91.849 13.9171 84.9435 11.867C81.7862 10.9303 78.5773 10.4806 75.4191 10.4806ZM105.497 10.2833H105.506H105.497Z" fill="#690589"/>
    <path d="M140.681 124.296C165.634 101.414 165.634 64.3143 140.681 41.4321C115.727 18.5498 75.2705 18.5498 50.3173 41.4321C25.3642 64.3143 25.3642 101.414 50.3173 124.296C75.2705 147.178 115.727 147.178 140.681 124.296Z" fill="#7BAC51"/>
    <path d="M95.5003 24.2697C94.1836 24.2697 92.8788 24.318 91.5821 24.3896C125.045 26.2473 151.561 51.7104 151.561 82.864C151.561 114.017 125.045 139.48 91.5821 141.338C92.8788 141.411 94.1836 141.458 95.5003 141.458C130.79 141.458 159.397 115.225 159.397 82.864C159.397 50.503 130.79 24.2697 95.5003 24.2697Z" fill="#5D8E33"/>
    <path d="M95.5001 141.458C96.8168 141.458 98.1207 141.41 99.4183 141.338C65.9556 139.481 39.4393 114.018 39.4393 82.864C39.4393 51.7112 65.9556 26.2481 99.4183 24.3896C98.1207 24.3171 96.8168 24.2697 95.5001 24.2697C60.2105 24.2697 31.603 50.503 31.603 82.864C31.603 115.225 60.2105 141.458 95.5001 141.458Z" fill="#99CA6F"/>
    <path d="M95.5002 143.124C59.2662 143.124 29.787 116.091 29.787 82.864C29.787 49.637 59.2662 22.6043 95.5002 22.6043C131.734 22.6043 161.213 49.637 161.213 82.864C161.213 116.091 131.734 143.124 95.5002 143.124ZM95.5002 25.935C61.2684 25.935 33.4191 51.4731 33.4191 82.864C33.4191 114.255 61.2684 139.793 95.5002 139.793C129.732 139.793 157.581 114.255 157.581 82.864C157.581 51.4731 129.732 25.935 95.5002 25.935Z" fill="#690589"/>
    <path d="M39.2959 85.2837C38.2935 85.2837 37.4799 84.5376 37.4799 83.6183C37.4799 80.007 37.824 76.3865 38.5032 72.8577C38.6776 71.9517 39.6237 71.3489 40.6071 71.5071C41.5951 71.667 42.2543 72.5304 42.0799 73.4364C41.4371 76.7746 41.1111 80.201 41.1111 83.6183C41.112 84.5376 40.2993 85.2837 39.2959 85.2837Z" fill="#690589"/>
    <path d="M102.675 56.1068V111.129C102.675 114.02 100.031 116.258 96.9812 116.258C93.8286 116.258 91.3878 114.02 91.3878 111.129V65.2462L87.3198 67.3912C86.4045 67.9508 85.3875 68.1373 84.4723 68.1373C82.54 68.1373 80.7103 67.2047 79.6933 65.526C77.9635 63.1945 78.8797 59.9305 81.523 58.5324L94.032 51.7245C94.1337 51.6312 94.3371 51.6312 94.4388 51.5379C94.6422 51.5379 94.7439 51.3514 94.9473 51.2582C95.1507 51.2582 95.3541 51.1649 95.5575 51.1649C95.6592 51.0717 95.8626 51.0717 95.9643 51.0717C96.1677 50.9784 96.4727 50.9784 96.6761 50.9784C96.7788 50.9784 96.8804 50.9784 96.9812 50.9784H97.0829C97.388 50.9784 97.5914 50.9784 97.7957 50.9784C97.8974 51.0717 98.0999 51.0717 98.2025 51.0717C98.5067 51.0717 98.6084 51.1649 98.8127 51.2582C98.9144 51.2582 99.1169 51.2582 99.2195 51.3514C99.5237 51.5379 99.6254 51.6312 99.8297 51.6312C99.9314 51.7245 100.033 51.8177 100.237 51.911C100.338 52.0042 100.541 52.0975 100.642 52.1908C100.847 52.284 100.948 52.4705 101.049 52.5638C101.151 52.6571 101.254 52.7503 101.354 52.9368C101.456 53.0301 101.658 53.2166 101.761 53.3099L101.863 53.4964C101.863 53.5897 101.965 53.6829 101.965 53.7762C102.066 53.9627 102.168 54.0559 102.168 54.2425C102.271 54.429 102.27 54.6155 102.372 54.7088C102.372 54.8953 102.474 55.0818 102.474 55.1751C102.474 55.4548 102.474 55.6414 102.677 55.8279C102.675 55.9203 102.675 56.0144 102.675 56.1068Z" fill="#F4EFED"/>
    <path d="M96.9812 117.924C92.8261 117.924 89.5717 114.939 89.5717 111.129V68.1248L88.2732 68.8093C87.1872 69.4588 85.8742 69.8018 84.4722 69.8018C81.8281 69.8018 79.469 68.5312 78.1451 66.3987C77.0963 64.9465 76.744 63.123 77.1781 61.3843C77.6312 59.5716 78.8833 58.0054 80.6159 57.0894L93.0068 50.3456C93.2111 50.2115 93.4072 50.1341 93.5462 50.0866C93.6034 50.0567 93.6624 50.03 93.7232 50.0067C93.8322 49.9293 93.9684 49.8443 94.1355 49.7677C94.3434 49.6728 94.5695 49.6145 94.8001 49.597C94.8637 49.5829 94.9327 49.5671 95.0063 49.5537C95.1879 49.4904 95.3849 49.448 95.5956 49.4247C96.0287 49.3123 96.431 49.3123 96.6752 49.3123H97.7939C98.0082 49.3123 98.2198 49.3472 98.4177 49.4138C98.8272 49.443 99.1333 49.5429 99.3457 49.6345C99.7171 49.6961 100.041 49.8252 100.314 50.0209L100.329 50.03C100.622 50.1066 100.891 50.2515 101.111 50.4522C101.222 50.508 101.326 50.5746 101.422 50.6504C101.517 50.7086 101.601 50.7644 101.676 50.8161C102.047 51.0342 102.269 51.2957 102.388 51.4372C102.499 51.5422 102.652 51.6937 102.804 51.9119L103.044 52.1317C103.181 52.2574 103.297 52.404 103.384 52.563L103.485 52.7495C103.533 52.8353 103.571 52.9236 103.601 53.0143C103.619 53.0518 103.637 53.0934 103.656 53.1409C103.756 53.3074 103.874 53.5314 103.938 53.8187C103.952 53.8561 103.965 53.8936 103.977 53.9303C104.087 54.1226 104.156 54.3333 104.179 54.5514C104.223 54.6897 104.271 54.8545 104.284 55.0535C104.419 55.29 104.492 55.5548 104.492 55.8262V111.128C104.492 114.875 101.122 117.924 96.9812 117.924ZM91.3878 63.5809C91.702 63.5809 92.0161 63.6559 92.2967 63.8049C92.8579 64.1022 93.2038 64.6517 93.2038 65.2463V111.129C93.2038 113.104 94.8283 114.593 96.9812 114.593C99.1196 114.593 100.859 113.039 100.859 111.129V56.2826C100.706 55.9437 100.669 55.6231 100.659 55.3808C100.645 55.3341 100.632 55.2825 100.618 55.2276C100.566 55.1085 100.534 55.0061 100.513 54.9328V54.932C100.513 54.932 100.521 54.9461 100.531 54.9644C100.474 54.8562 100.43 54.7421 100.399 54.6255C100.379 54.5906 100.359 54.5573 100.34 54.5215C100.293 54.4357 100.255 54.3474 100.225 54.2558L100.069 54.1134C99.9478 54.0027 99.8451 53.8761 99.7625 53.7387C99.6844 53.6655 99.6218 53.5989 99.56 53.5289C99.5246 53.5048 99.4901 53.4789 99.4565 53.4531C99.3757 53.4032 99.2931 53.3524 99.2104 53.2941C99.1151 53.2425 99.0306 53.19 98.9553 53.1392C98.7492 53.0618 98.5812 52.9669 98.4459 52.8844C98.2879 52.8553 98.1326 52.8095 97.9991 52.7479C97.9855 52.7412 97.9719 52.7345 97.9583 52.7287C97.7703 52.7154 97.5923 52.6871 97.4253 52.6438H96.6752C96.6435 52.6438 96.6026 52.6438 96.5635 52.6438C96.4446 52.6821 96.322 52.7087 96.1976 52.7237C96.0405 52.7778 95.8744 52.812 95.7045 52.8253C95.7 52.8261 95.6964 52.827 95.6918 52.8278C95.5447 52.9236 95.355 53.026 95.1216 53.1001C95.0499 53.1309 94.9845 53.1542 94.9282 53.1734L82.4492 59.9646C81.5702 60.4301 80.9464 61.2153 80.7185 62.1287C80.4987 63.0064 80.6685 63.8807 81.1943 64.5901C81.2251 64.6318 81.2533 64.6742 81.2796 64.7184C81.9452 65.8166 83.1383 66.4728 84.4713 66.4728C85.1869 66.4728 85.8061 66.3163 86.311 66.0073C86.3446 65.9865 86.3791 65.9674 86.4136 65.949L90.4816 63.8041C90.7622 63.655 91.0745 63.5809 91.3878 63.5809ZM100.545 54.9919C100.546 54.9919 100.546 54.9927 100.546 54.9936C100.546 54.9927 100.546 54.9927 100.545 54.9919ZM104.186 54.7071C104.186 54.7071 104.186 54.708 104.186 54.7088C104.186 54.708 104.186 54.7071 104.186 54.7071ZM99.8297 53.6796C99.8306 53.6796 99.8315 53.6805 99.8324 53.6805C99.8315 53.6805 99.8306 53.6805 99.8297 53.6796ZM99.3612 53.3715C99.3757 53.384 99.3893 53.3973 99.4057 53.4098C99.3902 53.3973 99.3757 53.384 99.3612 53.3715ZM96.7751 52.5613C96.7751 52.5613 96.7742 52.5613 96.7733 52.5622C96.7742 52.5613 96.7751 52.5613 96.7751 52.5613ZM97.9374 52.5314C97.9383 52.5322 97.9392 52.533 97.9401 52.5339C97.9392 52.533 97.9383 52.5322 97.9374 52.5314ZM102.332 51.3856C102.335 51.3881 102.338 51.3898 102.34 51.3923C102.338 51.3906 102.335 51.3881 102.332 51.3856ZM101.517 50.7303C101.503 50.7186 101.49 50.7061 101.475 50.6937C101.49 50.7061 101.502 50.7178 101.517 50.7303ZM93.1557 50.3589C93.1557 50.3589 93.1548 50.3598 93.1548 50.3606C93.1548 50.3598 93.1548 50.3589 93.1557 50.3589Z" fill="#690589"/>
</svg>
